<svg xmlns="http://www.w3.org/2000/svg" xmlns:xlink="http://www.w3.org/1999/xlink" width="200" zoomAndPan="magnify" viewBox="0 0 150 89.999999" height="120" preserveAspectRatio="xMidYMid meet" version="1.0"><defs><g/><clipPath id="e30d6ede7c"><path d="M 56.574219 12.742188 L 68 12.742188 L 68 15 L 56.574219 15 Z M 56.574219 12.742188 " clip-rule="nonzero"/></clipPath><clipPath id="76d7cf7a59"><path d="M 66.0625 14.988281 C 66.679688 14.988281 67.183594 14.484375 67.183594 13.867188 C 67.183594 13.246094 66.679688 12.742188 66.0625 12.742188 L 57.703125 12.742188 C 57.085938 12.742188 56.582031 13.246094 56.582031 13.867188 C 56.582031 14.484375 57.085938 14.988281 57.703125 14.988281 Z M 66.0625 14.988281 " clip-rule="nonzero"/></clipPath><linearGradient x1="30.698263" gradientTransform="matrix(0.254518, 0, 0, 0.254518, 56.581799, 12.742975)" y1="-8.426365" x2="10.962808" gradientUnits="userSpaceOnUse" y2="17.247195" id="27d85a5903"><stop stop-opacity="1" stop-color="rgb(62.416077%, 28.95813%, 91.003418%)" offset="0"/><stop stop-opacity="1" stop-color="rgb(62.298584%, 28.865051%, 91.009521%)" offset="0.03125"/><stop stop-opacity="1" stop-color="rgb(62.062073%, 28.681946%, 91.020203%)" offset="0.0625"/><stop stop-opacity="1" stop-color="rgb(61.827087%, 28.497314%, 91.030884%)" offset="0.09375"/><stop stop-opacity="1" stop-color="rgb(61.592102%, 28.314209%, 91.041565%)" offset="0.125"/><stop stop-opacity="1" stop-color="rgb(61.357117%, 28.129578%, 91.053772%)" offset="0.15625"/><stop stop-opacity="1" stop-color="rgb(61.122131%, 27.946472%, 91.064453%)" offset="0.1875"/><stop stop-opacity="1" stop-color="rgb(60.887146%, 27.761841%, 91.075134%)" offset="0.215942"/><stop stop-opacity="1" stop-color="rgb(60.769653%, 27.670288%, 91.081238%)" offset="0.21875"/><stop stop-opacity="1" stop-color="rgb(60.652161%, 27.577209%, 91.085815%)" offset="0.25"/><stop stop-opacity="1" stop-color="rgb(60.415649%, 27.394104%, 91.096497%)" offset="0.28125"/><stop stop-opacity="1" stop-color="rgb(60.180664%, 27.209473%, 91.108704%)" offset="0.3125"/><stop stop-opacity="1" stop-color="rgb(59.945679%, 27.026367%, 91.119385%)" offset="0.34375"/><stop stop-opacity="1" stop-color="rgb(59.710693%, 26.841736%, 91.130066%)" offset="0.375"/><stop stop-opacity="1" stop-color="rgb(59.475708%, 26.65863%, 91.140747%)" offset="0.40625"/><stop stop-opacity="1" stop-color="rgb(59.240723%, 26.473999%, 91.152954%)" offset="0.4375"/><stop stop-opacity="1" stop-color="rgb(59.005737%, 26.289368%, 91.163635%)" offset="0.46875"/><stop stop-opacity="1" stop-color="rgb(58.769226%, 26.106262%, 91.174316%)" offset="0.5"/><stop stop-opacity="1" stop-color="rgb(58.534241%, 25.921631%, 91.184998%)" offset="0.53125"/><stop stop-opacity="1" stop-color="rgb(58.299255%, 25.738525%, 91.195679%)" offset="0.5625"/><stop stop-opacity="1" stop-color="rgb(58.06427%, 25.553894%, 91.207886%)" offset="0.59375"/><stop stop-opacity="1" stop-color="rgb(57.829285%, 25.370789%, 91.218567%)" offset="0.625"/><stop stop-opacity="1" stop-color="rgb(57.594299%, 25.186157%, 91.229248%)" offset="0.65625"/><stop stop-opacity="1" stop-color="rgb(57.359314%, 25.001526%, 91.239929%)" offset="0.6875"/><stop stop-opacity="1" stop-color="rgb(57.122803%, 24.81842%, 91.25061%)" offset="0.71875"/><stop stop-opacity="1" stop-color="rgb(56.887817%, 24.633789%, 91.262817%)" offset="0.75"/><stop stop-opacity="1" stop-color="rgb(56.652832%, 24.450684%, 91.273499%)" offset="0.78125"/><stop stop-opacity="1" stop-color="rgb(56.417847%, 24.266052%, 91.28418%)" offset="0.784058"/><stop stop-opacity="1" stop-color="rgb(56.300354%, 24.1745%, 91.290283%)" offset="0.8125"/><stop stop-opacity="1" stop-color="rgb(56.182861%, 24.082947%, 91.294861%)" offset="0.84375"/><stop stop-opacity="1" stop-color="rgb(55.947876%, 23.898315%, 91.307068%)" offset="0.875"/><stop stop-opacity="1" stop-color="rgb(55.712891%, 23.713684%, 91.317749%)" offset="0.90625"/><stop stop-opacity="1" stop-color="rgb(55.476379%, 23.530579%, 91.32843%)" offset="0.9375"/><stop stop-opacity="1" stop-color="rgb(55.241394%, 23.345947%, 91.339111%)" offset="0.96875"/><stop stop-opacity="1" stop-color="rgb(55.006409%, 23.162842%, 91.349792%)" offset="1"/></linearGradient><clipPath id="a1cc4498e2"><path d="M 58 16 L 66 16 L 66 30 L 58 30 Z M 58 16 " clip-rule="nonzero"/></clipPath><clipPath id="2d915b8c22"><path d="M 58.074219 29.761719 C 58.855469 29.875 60.683594 29.964844 62.019531 28.683594 C 63.554688 27.210938 65.109375 26.121094 65.691406 25.730469 L 65.691406 16.007812 L 58.074219 16.007812 Z M 58.074219 29.761719 " clip-rule="nonzero"/></clipPath><linearGradient x1="35.61345" gradientTransform="matrix(0.254518, 0, 0, 0.254518, 56.581799, 12.742975)" y1="12.694293" x2="-1.997546" gradientUnits="userSpaceOnUse" y2="61.622212" id="9b52c01733"><stop stop-opacity="1" stop-color="rgb(59.21936%, 26.45874%, 91.15448%)" offset="0"/><stop stop-opacity="1" stop-color="rgb(59.106445%, 26.370239%, 91.159058%)" offset="0.015625"/><stop stop-opacity="1" stop-color="rgb(58.883667%, 26.194763%, 91.168213%)" offset="0.03125"/><stop stop-opacity="1" stop-color="rgb(58.659363%, 26.019287%, 91.178894%)" offset="0.046875"/><stop stop-opacity="1" stop-color="rgb(58.435059%, 25.843811%, 91.189575%)" offset="0.0625"/><stop stop-opacity="1" stop-color="rgb(58.210754%, 25.668335%, 91.200256%)" offset="0.078125"/><stop stop-opacity="1" stop-color="rgb(57.98645%, 25.492859%, 91.210938%)" offset="0.09375"/><stop stop-opacity="1" stop-color="rgb(57.762146%, 25.318909%, 91.221619%)" offset="0.109375"/><stop stop-opacity="1" stop-color="rgb(57.537842%, 25.143433%, 91.2323%)" offset="0.125"/><stop stop-opacity="1" stop-color="rgb(57.313538%, 24.967957%, 91.242981%)" offset="0.140625"/><stop stop-opacity="1" stop-color="rgb(57.089233%, 24.79248%, 91.252136%)" offset="0.15625"/><stop stop-opacity="1" stop-color="rgb(56.866455%, 24.617004%, 91.262817%)" offset="0.171875"/><stop stop-opacity="1" stop-color="rgb(56.642151%, 24.441528%, 91.273499%)" offset="0.1875"/><stop stop-opacity="1" stop-color="rgb(56.417847%, 24.266052%, 91.28418%)" offset="0.203125"/><stop stop-opacity="1" stop-color="rgb(56.193542%, 24.090576%, 91.294861%)" offset="0.21875"/><stop stop-opacity="1" stop-color="rgb(55.969238%, 23.9151%, 91.305542%)" offset="0.234375"/><stop stop-opacity="1" stop-color="rgb(55.744934%, 23.74115%, 91.316223%)" offset="0.25"/><stop stop-opacity="1" stop-color="rgb(55.52063%, 23.565674%, 91.326904%)" offset="0.265625"/><stop stop-opacity="1" stop-color="rgb(55.296326%, 23.390198%, 91.33606%)" offset="0.28125"/><stop stop-opacity="1" stop-color="rgb(55.073547%, 23.214722%, 91.346741%)" offset="0.295474"/><stop stop-opacity="1" stop-color="rgb(54.962158%, 23.127747%, 91.352844%)" offset="0.296875"/><stop stop-opacity="1" stop-color="rgb(54.849243%, 23.039246%, 91.357422%)" offset="0.3125"/><stop stop-opacity="1" stop-color="rgb(54.624939%, 22.86377%, 91.368103%)" offset="0.328125"/><stop stop-opacity="1" stop-color="rgb(54.400635%, 22.688293%, 91.378784%)" offset="0.34375"/><stop stop-opacity="1" stop-color="rgb(54.176331%, 22.512817%, 91.389465%)" offset="0.359375"/><stop stop-opacity="1" stop-color="rgb(53.952026%, 22.337341%, 91.400146%)" offset="0.375"/><stop stop-opacity="1" stop-color="rgb(53.727722%, 22.163391%, 91.410828%)" offset="0.390625"/><stop stop-opacity="1" stop-color="rgb(53.503418%, 21.987915%, 91.421509%)" offset="0.40625"/><stop stop-opacity="1" stop-color="rgb(53.279114%, 21.812439%, 91.430664%)" offset="0.421875"/><stop stop-opacity="1" stop-color="rgb(53.056335%, 21.636963%, 91.441345%)" offset="0.4375"/><stop stop-opacity="1" stop-color="rgb(52.832031%, 21.461487%, 91.452026%)" offset="0.453125"/><stop stop-opacity="1" stop-color="rgb(52.607727%, 21.286011%, 91.462708%)" offset="0.46875"/><stop stop-opacity="1" stop-color="rgb(52.383423%, 21.110535%, 91.473389%)" offset="0.484375"/><stop stop-opacity="1" stop-color="rgb(52.159119%, 20.935059%, 91.48407%)" offset="0.5"/><stop stop-opacity="1" stop-color="rgb(51.934814%, 20.759583%, 91.494751%)" offset="0.515625"/><stop stop-opacity="1" stop-color="rgb(51.71051%, 20.584106%, 91.505432%)" offset="0.53125"/><stop stop-opacity="1" stop-color="rgb(51.486206%, 20.410156%, 91.514587%)" offset="0.546875"/><stop stop-opacity="1" stop-color="rgb(51.263428%, 20.23468%, 91.525269%)" offset="0.5625"/><stop stop-opacity="1" stop-color="rgb(51.039124%, 20.059204%, 91.53595%)" offset="0.578125"/><stop stop-opacity="1" stop-color="rgb(50.814819%, 19.883728%, 91.546631%)" offset="0.59375"/><stop stop-opacity="1" stop-color="rgb(50.590515%, 19.708252%, 91.557312%)" offset="0.609375"/><stop stop-opacity="1" stop-color="rgb(50.366211%, 19.532776%, 91.567993%)" offset="0.625"/><stop stop-opacity="1" stop-color="rgb(50.141907%, 19.3573%, 91.578674%)" offset="0.640625"/><stop stop-opacity="1" stop-color="rgb(49.917603%, 19.181824%, 91.589355%)" offset="0.65625"/><stop stop-opacity="1" stop-color="rgb(49.693298%, 19.006348%, 91.598511%)" offset="0.671875"/><stop stop-opacity="1" stop-color="rgb(49.468994%, 18.832397%, 91.609192%)" offset="0.6875"/><stop stop-opacity="1" stop-color="rgb(49.246216%, 18.656921%, 91.619873%)" offset="0.703125"/><stop stop-opacity="1" stop-color="rgb(49.021912%, 18.481445%, 91.630554%)" offset="0.704526"/><stop stop-opacity="1" stop-color="rgb(48.910522%, 18.39447%, 91.636658%)" offset="0.71875"/><stop stop-opacity="1" stop-color="rgb(48.797607%, 18.305969%, 91.641235%)" offset="0.734375"/><stop stop-opacity="1" stop-color="rgb(48.573303%, 18.130493%, 91.651917%)" offset="0.75"/><stop stop-opacity="1" stop-color="rgb(48.348999%, 17.955017%, 91.662598%)" offset="0.765625"/><stop stop-opacity="1" stop-color="rgb(48.124695%, 17.779541%, 91.673279%)" offset="0.78125"/><stop stop-opacity="1" stop-color="rgb(47.900391%, 17.604065%, 91.68396%)" offset="0.796875"/><stop stop-opacity="1" stop-color="rgb(47.676086%, 17.428589%, 91.693115%)" offset="0.8125"/><stop stop-opacity="1" stop-color="rgb(47.453308%, 17.254639%, 91.703796%)" offset="0.828125"/><stop stop-opacity="1" stop-color="rgb(47.229004%, 17.079163%, 91.714478%)" offset="0.84375"/><stop stop-opacity="1" stop-color="rgb(47.0047%, 16.903687%, 91.725159%)" offset="0.859375"/><stop stop-opacity="1" stop-color="rgb(46.780396%, 16.72821%, 91.73584%)" offset="0.875"/><stop stop-opacity="1" stop-color="rgb(46.556091%, 16.552734%, 91.746521%)" offset="0.890625"/><stop stop-opacity="1" stop-color="rgb(46.331787%, 16.377258%, 91.757202%)" offset="0.90625"/><stop stop-opacity="1" stop-color="rgb(46.107483%, 16.201782%, 91.767883%)" offset="0.921875"/><stop stop-opacity="1" stop-color="rgb(45.883179%, 16.026306%, 91.777039%)" offset="0.9375"/><stop stop-opacity="1" stop-color="rgb(45.6604%, 15.85083%, 91.78772%)" offset="0.953125"/><stop stop-opacity="1" stop-color="rgb(45.436096%, 15.67688%, 91.798401%)" offset="0.96875"/><stop stop-opacity="1" stop-color="rgb(45.211792%, 15.501404%, 91.809082%)" offset="0.984375"/><stop stop-opacity="1" stop-color="rgb(44.987488%, 15.325928%, 91.819763%)" offset="1"/></linearGradient><clipPath id="c2bc8208e3"><path d="M 71 15 L 92.574219 15 L 92.574219 49.492188 L 71 49.492188 Z M 71 15 " clip-rule="nonzero"/></clipPath><clipPath id="dacb86aa9e"><path d="M 79.78125 25.507812 C 79.78125 27.238281 78.851562 28.796875 77.355469 29.574219 C 73.742188 31.453125 71.578125 35.152344 71.707031 39.226562 C 71.878906 44.699219 76.300781 49.15625 81.769531 49.367188 C 84.648438 49.476562 87.382812 48.445312 89.457031 46.445312 C 91.535156 44.449219 92.675781 41.761719 92.675781 38.882812 C 92.675781 34.984375 90.535156 31.429688 87.082031 29.605469 C 85.550781 28.796875 84.597656 27.242188 84.597656 25.554688 L 84.597656 15.648438 L 79.78125 15.648438 Z M 89.753906 36.300781 C 90.105469 36.300781 90.390625 36.585938 90.390625 36.9375 C 90.390625 37.289062 90.105469 37.574219 89.753906 37.574219 C 89.40625 37.574219 89.121094 37.289062 89.121094 36.9375 C 89.121094 36.585938 89.40625 36.300781 89.753906 36.300781 Z M 89.398438 41.351562 C 89.75 41.351562 90.03125 41.636719 90.03125 41.988281 C 90.03125 42.339844 89.75 42.625 89.398438 42.625 C 89.046875 42.625 88.761719 42.339844 88.761719 41.988281 C 88.757812 41.636719 89.042969 41.351562 89.398438 41.351562 Z M 87.515625 30.777344 C 87.867188 30.777344 88.152344 31.0625 88.152344 31.410156 C 88.152344 31.761719 87.867188 32.046875 87.515625 32.046875 C 87.164062 32.046875 86.878906 31.761719 86.878906 31.410156 C 86.878906 31.0625 87.164062 30.777344 87.515625 30.777344 Z M 86.878906 45.148438 C 87.230469 45.148438 87.515625 45.433594 87.515625 45.785156 C 87.515625 46.136719 87.230469 46.421875 86.878906 46.421875 C 86.527344 46.421875 86.242188 46.136719 86.242188 45.785156 C 86.242188 45.433594 86.527344 45.148438 86.878906 45.148438 Z M 85.613281 34.878906 C 85.964844 34.878906 86.25 35.164062 86.25 35.515625 C 86.25 35.867188 85.964844 36.152344 85.613281 36.152344 C 85.261719 36.152344 84.976562 35.867188 84.976562 35.515625 C 84.976562 35.164062 85.261719 34.878906 85.613281 34.878906 Z M 85.613281 40.421875 C 85.964844 40.421875 86.25 40.707031 86.25 41.058594 C 86.25 41.410156 85.964844 41.695312 85.613281 41.695312 C 85.261719 41.695312 84.976562 41.410156 84.976562 41.058594 C 84.976562 40.707031 85.261719 40.421875 85.613281 40.421875 Z M 74.847656 41.695312 C 74.496094 41.695312 74.210938 41.410156 74.210938 41.058594 C 74.210938 40.707031 74.496094 40.421875 74.847656 40.421875 C 75.199219 40.421875 75.484375 40.707031 75.484375 41.058594 C 75.484375 41.410156 75.199219 41.695312 74.847656 41.695312 Z M 75.714844 35.992188 C 75.367188 35.992188 75.082031 35.707031 75.082031 35.355469 C 75.082031 35.003906 75.367188 34.71875 75.714844 34.71875 C 76.066406 34.71875 76.351562 35.003906 76.351562 35.355469 C 76.351562 35.707031 76.066406 35.992188 75.714844 35.992188 Z M 77.953125 45.328125 C 77.601562 45.328125 77.316406 45.042969 77.316406 44.691406 C 77.316406 44.339844 77.601562 44.054688 77.953125 44.054688 C 78.304688 44.054688 78.589844 44.339844 78.589844 44.691406 C 78.589844 45.042969 78.304688 45.328125 77.953125 45.328125 Z M 80.246094 41.695312 C 79.894531 41.695312 79.609375 41.410156 79.609375 41.058594 C 79.609375 40.707031 79.894531 40.421875 80.246094 40.421875 C 80.59375 40.421875 80.878906 40.707031 80.878906 41.058594 C 80.878906 41.410156 80.59375 41.695312 80.246094 41.695312 Z M 80.382812 36.9375 C 80.03125 36.9375 79.746094 36.652344 79.746094 36.300781 C 79.746094 35.949219 80.03125 35.664062 80.382812 35.664062 C 80.734375 35.664062 81.019531 35.949219 81.019531 36.300781 C 81.019531 36.652344 80.734375 36.9375 80.382812 36.9375 Z M 82.191406 46.410156 C 82.542969 46.410156 82.828125 46.695312 82.828125 47.046875 C 82.828125 47.398438 82.542969 47.683594 82.191406 47.683594 C 81.839844 47.683594 81.554688 47.398438 81.554688 47.046875 C 81.554688 46.695312 81.839844 46.410156 82.191406 46.410156 Z M 81.019531 31.414062 C 81.019531 31.765625 80.734375 32.050781 80.382812 32.050781 C 80.03125 32.050781 79.746094 31.765625 79.746094 31.414062 C 79.746094 31.0625 80.03125 30.777344 80.382812 30.777344 C 80.734375 30.777344 81.019531 31.0625 81.019531 31.414062 Z M 81.019531 31.414062 " clip-rule="nonzero"/></clipPath><linearGradient x1="151.193421" gradientTransform="matrix(0.254518, 0, 0, 0.254518, 56.581799, 12.742975)" y1="18.933137" x2="56.330648" gradientUnits="userSpaceOnUse" y2="142.339552" id="4d5e8dd457"><stop stop-opacity="1" stop-color="rgb(74.443054%, 38.365173%, 90.440369%)" offset="0"/><stop stop-opacity="1" stop-color="rgb(74.301147%, 38.253784%, 90.446472%)" offset="0.0078125"/><stop stop-opacity="1" stop-color="rgb(74.017334%, 38.032532%, 90.460205%)" offset="0.015625"/><stop stop-opacity="1" stop-color="rgb(73.735046%, 37.812805%, 90.473938%)" offset="0.0234375"/><stop stop-opacity="1" stop-color="rgb(73.452759%, 37.591553%, 90.486145%)" offset="0.03125"/><stop stop-opacity="1" stop-color="rgb(73.170471%, 37.3703%, 90.499878%)" offset="0.0390625"/><stop stop-opacity="1" stop-color="rgb(72.886658%, 37.149048%, 90.513611%)" offset="0.046875"/><stop stop-opacity="1" stop-color="rgb(72.60437%, 36.927795%, 90.525818%)" offset="0.0546875"/><stop stop-opacity="1" stop-color="rgb(72.322083%, 36.706543%, 90.539551%)" offset="0.0625"/><stop stop-opacity="1" stop-color="rgb(72.039795%, 36.485291%, 90.553284%)" offset="0.0703125"/><stop stop-opacity="1" stop-color="rgb(71.755981%, 36.264038%, 90.565491%)" offset="0.078125"/><stop stop-opacity="1" stop-color="rgb(71.473694%, 36.042786%, 90.579224%)" offset="0.0859375"/><stop stop-opacity="1" stop-color="rgb(71.191406%, 35.823059%, 90.592957%)" offset="0.09375"/><stop stop-opacity="1" stop-color="rgb(70.909119%, 35.601807%, 90.605164%)" offset="0.101562"/><stop stop-opacity="1" stop-color="rgb(70.626831%, 35.380554%, 90.618896%)" offset="0.109375"/><stop stop-opacity="1" stop-color="rgb(70.343018%, 35.159302%, 90.632629%)" offset="0.117188"/><stop stop-opacity="1" stop-color="rgb(70.06073%, 34.938049%, 90.644836%)" offset="0.125"/><stop stop-opacity="1" stop-color="rgb(69.778442%, 34.716797%, 90.658569%)" offset="0.132812"/><stop stop-opacity="1" stop-color="rgb(69.496155%, 34.495544%, 90.672302%)" offset="0.140625"/><stop stop-opacity="1" stop-color="rgb(69.212341%, 34.274292%, 90.684509%)" offset="0.148438"/><stop stop-opacity="1" stop-color="rgb(68.930054%, 34.05304%, 90.698242%)" offset="0.15625"/><stop stop-opacity="1" stop-color="rgb(68.647766%, 33.833313%, 90.711975%)" offset="0.164062"/><stop stop-opacity="1" stop-color="rgb(68.365479%, 33.612061%, 90.724182%)" offset="0.171875"/><stop stop-opacity="1" stop-color="rgb(68.081665%, 33.390808%, 90.737915%)" offset="0.179687"/><stop stop-opacity="1" stop-color="rgb(67.799377%, 33.169556%, 90.751648%)" offset="0.1875"/><stop stop-opacity="1" stop-color="rgb(67.51709%, 32.948303%, 90.763855%)" offset="0.195312"/><stop stop-opacity="1" stop-color="rgb(67.234802%, 32.727051%, 90.777588%)" offset="0.203125"/><stop stop-opacity="1" stop-color="rgb(66.952515%, 32.505798%, 90.791321%)" offset="0.210938"/><stop stop-opacity="1" stop-color="rgb(66.668701%, 32.284546%, 90.805054%)" offset="0.21875"/><stop stop-opacity="1" stop-color="rgb(66.386414%, 32.063293%, 90.817261%)" offset="0.226562"/><stop stop-opacity="1" stop-color="rgb(66.104126%, 31.843567%, 90.830994%)" offset="0.234375"/><stop stop-opacity="1" stop-color="rgb(65.821838%, 31.622314%, 90.844727%)" offset="0.242187"/><stop stop-opacity="1" stop-color="rgb(65.538025%, 31.401062%, 90.856934%)" offset="0.25"/><stop stop-opacity="1" stop-color="rgb(65.255737%, 31.17981%, 90.870667%)" offset="0.257812"/><stop stop-opacity="1" stop-color="rgb(64.97345%, 30.958557%, 90.884399%)" offset="0.265625"/><stop stop-opacity="1" stop-color="rgb(64.691162%, 30.737305%, 90.896606%)" offset="0.273437"/><stop stop-opacity="1" stop-color="rgb(64.407349%, 30.516052%, 90.910339%)" offset="0.28125"/><stop stop-opacity="1" stop-color="rgb(64.125061%, 30.2948%, 90.924072%)" offset="0.289062"/><stop stop-opacity="1" stop-color="rgb(63.842773%, 30.073547%, 90.936279%)" offset="0.296875"/><stop stop-opacity="1" stop-color="rgb(63.560486%, 29.853821%, 90.950012%)" offset="0.304688"/><stop stop-opacity="1" stop-color="rgb(63.276672%, 29.632568%, 90.963745%)" offset="0.3125"/><stop stop-opacity="1" stop-color="rgb(62.994385%, 29.411316%, 90.975952%)" offset="0.320312"/><stop stop-opacity="1" stop-color="rgb(62.712097%, 29.190063%, 90.989685%)" offset="0.322968"/><stop stop-opacity="1" stop-color="rgb(62.571716%, 29.0802%, 90.997314%)" offset="0.328125"/><stop stop-opacity="1" stop-color="rgb(62.42981%, 28.968811%, 91.003418%)" offset="0.335937"/><stop stop-opacity="1" stop-color="rgb(62.147522%, 28.747559%, 91.015625%)" offset="0.34375"/><stop stop-opacity="1" stop-color="rgb(61.863708%, 28.526306%, 91.029358%)" offset="0.351562"/><stop stop-opacity="1" stop-color="rgb(61.581421%, 28.305054%, 91.043091%)" offset="0.359375"/><stop stop-opacity="1" stop-color="rgb(61.299133%, 28.083801%, 91.055298%)" offset="0.367187"/><stop stop-opacity="1" stop-color="rgb(61.016846%, 27.864075%, 91.069031%)" offset="0.375"/><stop stop-opacity="1" stop-color="rgb(60.733032%, 27.642822%, 91.082764%)" offset="0.382812"/><stop stop-opacity="1" stop-color="rgb(60.450745%, 27.42157%, 91.094971%)" offset="0.390625"/><stop stop-opacity="1" stop-color="rgb(60.168457%, 27.200317%, 91.108704%)" offset="0.398438"/><stop stop-opacity="1" stop-color="rgb(59.886169%, 26.979065%, 91.122437%)" offset="0.40625"/><stop stop-opacity="1" stop-color="rgb(59.602356%, 26.757812%, 91.134644%)" offset="0.414062"/><stop stop-opacity="1" stop-color="rgb(59.320068%, 26.53656%, 91.148376%)" offset="0.421875"/><stop stop-opacity="1" stop-color="rgb(59.037781%, 26.315308%, 91.162109%)" offset="0.429687"/><stop stop-opacity="1" stop-color="rgb(58.755493%, 26.094055%, 91.174316%)" offset="0.4375"/><stop stop-opacity="1" stop-color="rgb(58.473206%, 25.874329%, 91.188049%)" offset="0.445312"/><stop stop-opacity="1" stop-color="rgb(58.189392%, 25.653076%, 91.201782%)" offset="0.453125"/><stop stop-opacity="1" stop-color="rgb(57.907104%, 25.431824%, 91.213989%)" offset="0.460937"/><stop stop-opacity="1" stop-color="rgb(57.624817%, 25.210571%, 91.227722%)" offset="0.46875"/><stop stop-opacity="1" stop-color="rgb(57.342529%, 24.989319%, 91.241455%)" offset="0.476563"/><stop stop-opacity="1" stop-color="rgb(57.058716%, 24.768066%, 91.255188%)" offset="0.484375"/><stop stop-opacity="1" stop-color="rgb(56.776428%, 24.546814%, 91.267395%)" offset="0.492188"/><stop stop-opacity="1" stop-color="rgb(56.494141%, 24.325562%, 91.281128%)" offset="0.5"/><stop stop-opacity="1" stop-color="rgb(56.211853%, 24.104309%, 91.294861%)" offset="0.507812"/><stop stop-opacity="1" stop-color="rgb(55.92804%, 23.884583%, 91.307068%)" offset="0.515625"/><stop stop-opacity="1" stop-color="rgb(55.645752%, 23.66333%, 91.320801%)" offset="0.523438"/><stop stop-opacity="1" stop-color="rgb(55.363464%, 23.442078%, 91.334534%)" offset="0.53125"/><stop stop-opacity="1" stop-color="rgb(55.081177%, 23.220825%, 91.346741%)" offset="0.539062"/><stop stop-opacity="1" stop-color="rgb(54.797363%, 22.999573%, 91.360474%)" offset="0.546875"/><stop stop-opacity="1" stop-color="rgb(54.515076%, 22.77832%, 91.374207%)" offset="0.554687"/><stop stop-opacity="1" stop-color="rgb(54.232788%, 22.557068%, 91.386414%)" offset="0.5625"/><stop stop-opacity="1" stop-color="rgb(53.9505%, 22.335815%, 91.400146%)" offset="0.570313"/><stop stop-opacity="1" stop-color="rgb(53.668213%, 22.114563%, 91.413879%)" offset="0.578125"/><stop stop-opacity="1" stop-color="rgb(53.384399%, 21.894836%, 91.426086%)" offset="0.585938"/><stop stop-opacity="1" stop-color="rgb(53.102112%, 21.673584%, 91.439819%)" offset="0.59375"/><stop stop-opacity="1" stop-color="rgb(52.819824%, 21.452332%, 91.453552%)" offset="0.601562"/><stop stop-opacity="1" stop-color="rgb(52.537537%, 21.231079%, 91.465759%)" offset="0.609375"/><stop stop-opacity="1" stop-color="rgb(52.253723%, 21.009827%, 91.479492%)" offset="0.617188"/><stop stop-opacity="1" stop-color="rgb(51.971436%, 20.788574%, 91.493225%)" offset="0.625"/><stop stop-opacity="1" stop-color="rgb(51.689148%, 20.567322%, 91.505432%)" offset="0.632812"/><stop stop-opacity="1" stop-color="rgb(51.40686%, 20.346069%, 91.519165%)" offset="0.640625"/><stop stop-opacity="1" stop-color="rgb(51.123047%, 20.124817%, 91.532898%)" offset="0.648437"/><stop stop-opacity="1" stop-color="rgb(50.840759%, 19.90509%, 91.545105%)" offset="0.65625"/><stop stop-opacity="1" stop-color="rgb(50.558472%, 19.683838%, 91.558838%)" offset="0.664063"/><stop stop-opacity="1" stop-color="rgb(50.276184%, 19.462585%, 91.572571%)" offset="0.671875"/><stop stop-opacity="1" stop-color="rgb(49.993896%, 19.241333%, 91.584778%)" offset="0.677032"/><stop stop-opacity="1" stop-color="rgb(49.85199%, 19.13147%, 91.592407%)" offset="0.679688"/><stop stop-opacity="1" stop-color="rgb(49.710083%, 19.020081%, 91.598511%)" offset="0.6875"/><stop stop-opacity="1" stop-color="rgb(49.427795%, 18.798828%, 91.612244%)" offset="0.695312"/><stop stop-opacity="1" stop-color="rgb(49.145508%, 18.577576%, 91.624451%)" offset="0.703125"/><stop stop-opacity="1" stop-color="rgb(48.86322%, 18.356323%, 91.638184%)" offset="0.710938"/><stop stop-opacity="1" stop-color="rgb(48.579407%, 18.135071%, 91.651917%)" offset="0.71875"/><stop stop-opacity="1" stop-color="rgb(48.297119%, 17.915344%, 91.664124%)" offset="0.726562"/><stop stop-opacity="1" stop-color="rgb(48.014832%, 17.694092%, 91.677856%)" offset="0.734375"/><stop stop-opacity="1" stop-color="rgb(47.732544%, 17.472839%, 91.691589%)" offset="0.742187"/><stop stop-opacity="1" stop-color="rgb(47.44873%, 17.251587%, 91.703796%)" offset="0.75"/><stop stop-opacity="1" stop-color="rgb(47.166443%, 17.030334%, 91.717529%)" offset="0.757812"/><stop stop-opacity="1" stop-color="rgb(46.884155%, 16.809082%, 91.731262%)" offset="0.765625"/><stop stop-opacity="1" stop-color="rgb(46.601868%, 16.58783%, 91.744995%)" offset="0.773438"/><stop stop-opacity="1" stop-color="rgb(46.318054%, 16.366577%, 91.757202%)" offset="0.78125"/><stop stop-opacity="1" stop-color="rgb(46.035767%, 16.145325%, 91.770935%)" offset="0.789062"/><stop stop-opacity="1" stop-color="rgb(45.753479%, 15.925598%, 91.784668%)" offset="0.796875"/><stop stop-opacity="1" stop-color="rgb(45.471191%, 15.704346%, 91.796875%)" offset="0.804688"/><stop stop-opacity="1" stop-color="rgb(45.188904%, 15.483093%, 91.810608%)" offset="0.8125"/><stop stop-opacity="1" stop-color="rgb(44.90509%, 15.261841%, 91.824341%)" offset="0.820312"/><stop stop-opacity="1" stop-color="rgb(44.622803%, 15.040588%, 91.836548%)" offset="0.828125"/><stop stop-opacity="1" stop-color="rgb(44.340515%, 14.819336%, 91.850281%)" offset="0.835937"/><stop stop-opacity="1" stop-color="rgb(44.058228%, 14.598083%, 91.864014%)" offset="0.84375"/><stop stop-opacity="1" stop-color="rgb(43.774414%, 14.376831%, 91.876221%)" offset="0.851562"/><stop stop-opacity="1" stop-color="rgb(43.492126%, 14.155579%, 91.889954%)" offset="0.859375"/><stop stop-opacity="1" stop-color="rgb(43.209839%, 13.935852%, 91.903687%)" offset="0.867188"/><stop stop-opacity="1" stop-color="rgb(42.927551%, 13.7146%, 91.915894%)" offset="0.875"/><stop stop-opacity="1" stop-color="rgb(42.643738%, 13.493347%, 91.929626%)" offset="0.882812"/><stop stop-opacity="1" stop-color="rgb(42.36145%, 13.272095%, 91.943359%)" offset="0.890625"/><stop stop-opacity="1" stop-color="rgb(42.079163%, 13.050842%, 91.955566%)" offset="0.898438"/><stop stop-opacity="1" stop-color="rgb(41.796875%, 12.82959%, 91.969299%)" offset="0.90625"/><stop stop-opacity="1" stop-color="rgb(41.514587%, 12.608337%, 91.983032%)" offset="0.914062"/><stop stop-opacity="1" stop-color="rgb(41.230774%, 12.387085%, 91.995239%)" offset="0.921875"/><stop stop-opacity="1" stop-color="rgb(40.948486%, 12.165833%, 92.008972%)" offset="0.929687"/><stop stop-opacity="1" stop-color="rgb(40.666199%, 11.94458%, 92.022705%)" offset="0.9375"/><stop stop-opacity="1" stop-color="rgb(40.383911%, 11.724854%, 92.034912%)" offset="0.945312"/><stop stop-opacity="1" stop-color="rgb(40.100098%, 11.503601%, 92.048645%)" offset="0.953125"/><stop stop-opacity="1" stop-color="rgb(39.81781%, 11.282349%, 92.062378%)" offset="0.960938"/><stop stop-opacity="1" stop-color="rgb(39.535522%, 11.061096%, 92.074585%)" offset="0.96875"/><stop stop-opacity="1" stop-color="rgb(39.253235%, 10.839844%, 92.088318%)" offset="0.976562"/><stop stop-opacity="1" stop-color="rgb(38.969421%, 10.618591%, 92.102051%)" offset="0.984375"/><stop stop-opacity="1" stop-color="rgb(38.687134%, 10.397339%, 92.114258%)" offset="0.992188"/><stop stop-opacity="1" stop-color="rgb(38.404846%, 10.176086%, 92.127991%)" offset="1"/></linearGradient><clipPath id="dd25a41706"><path d="M 77 12.742188 L 88 12.742188 L 88 15 L 77 15 Z M 77 12.742188 " clip-rule="nonzero"/></clipPath><clipPath id="57a1bac246"><path d="M 87.332031 13.6875 C 87.332031 13.167969 86.910156 12.742188 86.386719 12.742188 L 77.992188 12.742188 C 77.472656 12.742188 77.046875 13.164062 77.046875 13.6875 C 77.046875 14.207031 77.46875 14.632812 77.992188 14.632812 L 86.386719 14.632812 C 86.910156 14.628906 87.332031 14.207031 87.332031 13.6875 Z M 87.332031 13.6875 " clip-rule="nonzero"/></clipPath><linearGradient x1="109.910462" gradientTransform="matrix(0.254518, 0, 0, 0.254518, 56.581799, 12.742975)" y1="-8.386242" x2="91.315756" gradientUnits="userSpaceOnUse" y2="15.803335" id="9137cdb91d"><stop stop-opacity="1" stop-color="rgb(73.628235%, 37.728882%, 90.478516%)" offset="0"/><stop stop-opacity="1" stop-color="rgb(73.516846%, 37.641907%, 90.483093%)" offset="0.03125"/><stop stop-opacity="1" stop-color="rgb(73.295593%, 37.469482%, 90.493774%)" offset="0.0625"/><stop stop-opacity="1" stop-color="rgb(73.074341%, 37.295532%, 90.504456%)" offset="0.09375"/><stop stop-opacity="1" stop-color="rgb(72.853088%, 37.121582%, 90.515137%)" offset="0.125"/><stop stop-opacity="1" stop-color="rgb(72.631836%, 36.949158%, 90.524292%)" offset="0.15625"/><stop stop-opacity="1" stop-color="rgb(72.409058%, 36.775208%, 90.534973%)" offset="0.1875"/><stop stop-opacity="1" stop-color="rgb(72.187805%, 36.602783%, 90.545654%)" offset="0.19281"/><stop stop-opacity="1" stop-color="rgb(72.077942%, 36.515808%, 90.551758%)" offset="0.21875"/><stop stop-opacity="1" stop-color="rgb(71.966553%, 36.428833%, 90.556335%)" offset="0.25"/><stop stop-opacity="1" stop-color="rgb(71.7453%, 36.254883%, 90.567017%)" offset="0.28125"/><stop stop-opacity="1" stop-color="rgb(71.522522%, 36.082458%, 90.576172%)" offset="0.3125"/><stop stop-opacity="1" stop-color="rgb(71.30127%, 35.908508%, 90.586853%)" offset="0.34375"/><stop stop-opacity="1" stop-color="rgb(71.080017%, 35.736084%, 90.597534%)" offset="0.375"/><stop stop-opacity="1" stop-color="rgb(70.858765%, 35.562134%, 90.608215%)" offset="0.40625"/><stop stop-opacity="1" stop-color="rgb(70.635986%, 35.388184%, 90.618896%)" offset="0.4375"/><stop stop-opacity="1" stop-color="rgb(70.414734%, 35.215759%, 90.628052%)" offset="0.46875"/><stop stop-opacity="1" stop-color="rgb(70.193481%, 35.041809%, 90.638733%)" offset="0.5"/><stop stop-opacity="1" stop-color="rgb(69.972229%, 34.869385%, 90.649414%)" offset="0.53125"/><stop stop-opacity="1" stop-color="rgb(69.749451%, 34.695435%, 90.660095%)" offset="0.5625"/><stop stop-opacity="1" stop-color="rgb(69.528198%, 34.521484%, 90.670776%)" offset="0.59375"/><stop stop-opacity="1" stop-color="rgb(69.306946%, 34.34906%, 90.679932%)" offset="0.625"/><stop stop-opacity="1" stop-color="rgb(69.085693%, 34.17511%, 90.690613%)" offset="0.65625"/><stop stop-opacity="1" stop-color="rgb(68.864441%, 34.002686%, 90.701294%)" offset="0.6875"/><stop stop-opacity="1" stop-color="rgb(68.641663%, 33.828735%, 90.711975%)" offset="0.71875"/><stop stop-opacity="1" stop-color="rgb(68.42041%, 33.654785%, 90.722656%)" offset="0.75"/><stop stop-opacity="1" stop-color="rgb(68.199158%, 33.482361%, 90.731812%)" offset="0.78125"/><stop stop-opacity="1" stop-color="rgb(67.977905%, 33.308411%, 90.742493%)" offset="0.80719"/><stop stop-opacity="1" stop-color="rgb(67.866516%, 33.222961%, 90.748596%)" offset="0.8125"/><stop stop-opacity="1" stop-color="rgb(67.755127%, 33.135986%, 90.753174%)" offset="0.84375"/><stop stop-opacity="1" stop-color="rgb(67.533875%, 32.962036%, 90.763855%)" offset="0.875"/><stop stop-opacity="1" stop-color="rgb(67.312622%, 32.788086%, 90.774536%)" offset="0.90625"/><stop stop-opacity="1" stop-color="rgb(67.09137%, 32.615662%, 90.785217%)" offset="0.9375"/><stop stop-opacity="1" stop-color="rgb(66.868591%, 32.441711%, 90.794373%)" offset="0.96875"/><stop stop-opacity="1" stop-color="rgb(66.647339%, 32.269287%, 90.805054%)" offset="1"/></linearGradient><clipPath id="f8b883c762"><path d="M 58 26 L 66 26 L 66 49.492188 L 58 49.492188 Z M 58 26 " clip-rule="nonzero"/></clipPath><clipPath id="acc297bbf4"><path d="M 58.929688 30.84375 C 58.601562 30.84375 58.3125 30.820312 58.074219 30.789062 L 58.074219 45.566406 C 58.074219 47.664062 59.785156 49.375 61.882812 49.375 C 63.984375 49.375 65.691406 47.664062 65.691406 45.566406 L 65.691406 26.96875 C 64.964844 27.492188 63.824219 28.355469 62.722656 29.417969 C 61.507812 30.585938 60.019531 30.84375 58.929688 30.84375 Z M 58.949219 34.242188 C 58.949219 33.890625 59.234375 33.605469 59.585938 33.605469 C 59.9375 33.605469 60.222656 33.890625 60.222656 34.242188 C 60.222656 34.59375 59.9375 34.878906 59.585938 34.878906 C 59.234375 34.878906 58.949219 34.59375 58.949219 34.242188 Z M 59.824219 44.867188 C 59.472656 44.867188 59.1875 44.582031 59.1875 44.230469 C 59.1875 43.878906 59.472656 43.59375 59.824219 43.59375 C 60.175781 43.59375 60.460938 43.878906 60.460938 44.230469 C 60.460938 44.582031 60.175781 44.867188 59.824219 44.867188 Z M 60.699219 40.015625 C 60.347656 40.015625 60.0625 39.730469 60.0625 39.378906 C 60.0625 39.027344 60.347656 38.742188 60.699219 38.742188 C 61.050781 38.742188 61.335938 39.027344 61.335938 39.378906 C 61.335938 39.730469 61.050781 40.015625 60.699219 40.015625 Z M 63.007812 47.394531 C 62.65625 47.394531 62.371094 47.109375 62.371094 46.757812 C 62.371094 46.40625 62.65625 46.121094 63.007812 46.121094 C 63.359375 46.121094 63.644531 46.40625 63.644531 46.757812 C 63.644531 47.109375 63.359375 47.394531 63.007812 47.394531 Z M 63.800781 42.332031 C 63.453125 42.332031 63.167969 42.046875 63.167969 41.695312 C 63.167969 41.34375 63.453125 41.058594 63.800781 41.058594 C 64.152344 41.058594 64.4375 41.34375 64.4375 41.695312 C 64.441406 42.046875 64.15625 42.332031 63.800781 42.332031 Z M 64.441406 36.628906 C 64.441406 36.980469 64.15625 37.265625 63.804688 37.265625 C 63.453125 37.265625 63.167969 36.980469 63.167969 36.628906 C 63.167969 36.277344 63.453125 35.992188 63.804688 35.992188 C 64.15625 35.992188 64.441406 36.277344 64.441406 36.628906 Z M 63.304688 31.414062 C 63.65625 31.414062 63.941406 31.699219 63.941406 32.050781 C 63.941406 32.402344 63.65625 32.6875 63.304688 32.6875 C 62.953125 32.6875 62.667969 32.402344 62.667969 32.050781 C 62.667969 31.699219 62.953125 31.414062 63.304688 31.414062 Z M 63.304688 31.414062 " clip-rule="nonzero"/></clipPath><linearGradient x1="48.892898" gradientTransform="matrix(0.254518, 0, 0, 0.254518, 56.581799, 12.742975)" y1="65.97239" x2="-4.750609" gradientUnits="userSpaceOnUse" y2="135.755808" id="88b640751a"><stop stop-opacity="1" stop-color="rgb(51.283264%, 20.249939%, 91.525269%)" offset="0"/><stop stop-opacity="1" stop-color="rgb(51.123047%, 20.124817%, 91.532898%)" offset="0.015625"/><stop stop-opacity="1" stop-color="rgb(50.802612%, 19.874573%, 91.548157%)" offset="0.03125"/><stop stop-opacity="1" stop-color="rgb(50.483704%, 19.624329%, 91.563416%)" offset="0.046875"/><stop stop-opacity="1" stop-color="rgb(50.163269%, 19.37561%, 91.577148%)" offset="0.0625"/><stop stop-opacity="1" stop-color="rgb(49.84436%, 19.125366%, 91.592407%)" offset="0.078125"/><stop stop-opacity="1" stop-color="rgb(49.523926%, 18.875122%, 91.607666%)" offset="0.09375"/><stop stop-opacity="1" stop-color="rgb(49.205017%, 18.624878%, 91.622925%)" offset="0.109375"/><stop stop-opacity="1" stop-color="rgb(48.884583%, 18.374634%, 91.638184%)" offset="0.125"/><stop stop-opacity="1" stop-color="rgb(48.565674%, 18.12439%, 91.651917%)" offset="0.140625"/><stop stop-opacity="1" stop-color="rgb(48.245239%, 17.874146%, 91.667175%)" offset="0.15625"/><stop stop-opacity="1" stop-color="rgb(47.926331%, 17.625427%, 91.682434%)" offset="0.171875"/><stop stop-opacity="1" stop-color="rgb(47.605896%, 17.375183%, 91.697693%)" offset="0.1875"/><stop stop-opacity="1" stop-color="rgb(47.286987%, 17.124939%, 91.712952%)" offset="0.203125"/><stop stop-opacity="1" stop-color="rgb(46.966553%, 16.874695%, 91.72821%)" offset="0.207169"/><stop stop-opacity="1" stop-color="rgb(46.807861%, 16.749573%, 91.73584%)" offset="0.21875"/><stop stop-opacity="1" stop-color="rgb(46.647644%, 16.624451%, 91.741943%)" offset="0.234375"/><stop stop-opacity="1" stop-color="rgb(46.327209%, 16.374207%, 91.757202%)" offset="0.25"/><stop stop-opacity="1" stop-color="rgb(46.008301%, 16.123962%, 91.772461%)" offset="0.265625"/><stop stop-opacity="1" stop-color="rgb(45.689392%, 15.875244%, 91.78772%)" offset="0.28125"/><stop stop-opacity="1" stop-color="rgb(45.368958%, 15.625%, 91.802979%)" offset="0.296875"/><stop stop-opacity="1" stop-color="rgb(45.050049%, 15.374756%, 91.816711%)" offset="0.3125"/><stop stop-opacity="1" stop-color="rgb(44.729614%, 15.124512%, 91.83197%)" offset="0.328125"/><stop stop-opacity="1" stop-color="rgb(44.410706%, 14.874268%, 91.847229%)" offset="0.34375"/><stop stop-opacity="1" stop-color="rgb(44.090271%, 14.624023%, 91.862488%)" offset="0.359375"/><stop stop-opacity="1" stop-color="rgb(43.771362%, 14.373779%, 91.877747%)" offset="0.375"/><stop stop-opacity="1" stop-color="rgb(43.450928%, 14.123535%, 91.891479%)" offset="0.390625"/><stop stop-opacity="1" stop-color="rgb(43.132019%, 13.874817%, 91.906738%)" offset="0.40625"/><stop stop-opacity="1" stop-color="rgb(42.811584%, 13.624573%, 91.921997%)" offset="0.421875"/><stop stop-opacity="1" stop-color="rgb(42.492676%, 13.374329%, 91.937256%)" offset="0.4375"/><stop stop-opacity="1" stop-color="rgb(42.172241%, 13.124084%, 91.952515%)" offset="0.453125"/><stop stop-opacity="1" stop-color="rgb(41.853333%, 12.87384%, 91.967773%)" offset="0.46875"/><stop stop-opacity="1" stop-color="rgb(41.532898%, 12.623596%, 91.981506%)" offset="0.484375"/><stop stop-opacity="1" stop-color="rgb(41.213989%, 12.373352%, 91.996765%)" offset="0.5"/><stop stop-opacity="1" stop-color="rgb(40.893555%, 12.124634%, 92.012024%)" offset="0.515625"/><stop stop-opacity="1" stop-color="rgb(40.574646%, 11.87439%, 92.027283%)" offset="0.53125"/><stop stop-opacity="1" stop-color="rgb(40.254211%, 11.624146%, 92.042542%)" offset="0.546875"/><stop stop-opacity="1" stop-color="rgb(39.935303%, 11.373901%, 92.056274%)" offset="0.5625"/><stop stop-opacity="1" stop-color="rgb(39.614868%, 11.123657%, 92.071533%)" offset="0.578125"/><stop stop-opacity="1" stop-color="rgb(39.295959%, 10.873413%, 92.086792%)" offset="0.59375"/><stop stop-opacity="1" stop-color="rgb(38.975525%, 10.623169%, 92.102051%)" offset="0.609375"/><stop stop-opacity="1" stop-color="rgb(38.656616%, 10.372925%, 92.11731%)" offset="0.625"/><stop stop-opacity="1" stop-color="rgb(38.336182%, 10.124207%, 92.131042%)" offset="0.640625"/><stop stop-opacity="1" stop-color="rgb(38.017273%, 9.873962%, 92.146301%)" offset="0.65625"/><stop stop-opacity="1" stop-color="rgb(37.696838%, 9.623718%, 92.16156%)" offset="0.671875"/><stop stop-opacity="1" stop-color="rgb(37.37793%, 9.373474%, 92.176819%)" offset="0.6875"/><stop stop-opacity="1" stop-color="rgb(37.057495%, 9.12323%, 92.192078%)" offset="0.75"/><stop stop-opacity="1" stop-color="rgb(36.898804%, 8.999634%, 92.199707%)" offset="0.792831"/><stop stop-opacity="1" stop-color="rgb(36.898804%, 8.999634%, 92.199707%)" offset="1"/></linearGradient></defs><g clip-path="url(#e30d6ede7c)"><g clip-path="url(#76d7cf7a59)"><path fill="url(#27d85a5903)" d="M 56.582031 12.742188 L 56.582031 14.988281 L 67.183594 14.988281 L 67.183594 12.742188 Z M 56.582031 12.742188 " fill-rule="nonzero"/></g></g><g clip-path="url(#a1cc4498e2)"><g clip-path="url(#2d915b8c22)"><path fill="url(#9b52c01733)" d="M 58.074219 16.007812 L 58.074219 29.964844 L 65.691406 29.964844 L 65.691406 16.007812 Z M 58.074219 16.007812 " fill-rule="nonzero"/></g></g><g clip-path="url(#c2bc8208e3)"><g clip-path="url(#dacb86aa9e)"><path fill="url(#4d5e8dd457)" d="M 71.578125 15.648438 L 71.578125 49.476562 L 92.574219 49.476562 L 92.574219 15.648438 Z M 71.578125 15.648438 " fill-rule="nonzero"/></g></g><g clip-path="url(#dd25a41706)"><g clip-path="url(#57a1bac246)"><path fill="url(#9137cdb91d)" d="M 77.046875 12.742188 L 77.046875 14.632812 L 87.332031 14.632812 L 87.332031 12.742188 Z M 77.046875 12.742188 " fill-rule="nonzero"/></g></g><g clip-path="url(#f8b883c762)"><g clip-path="url(#acc297bbf4)"><path fill="url(#88b640751a)" d="M 58.074219 26.96875 L 58.074219 49.375 L 65.691406 49.375 L 65.691406 26.96875 Z M 58.074219 26.96875 " fill-rule="nonzero"/></g></g><g fill="#5e17eb" fill-opacity="1"><g transform="translate(19.417008, 65.424853)"><g><path d="M 3.171875 -0.671875 L 5.78125 -0.671875 C 6 -0.671875 6.179688 -0.703125 6.328125 -0.765625 C 6.484375 -0.828125 6.613281 -0.90625 6.71875 -1 C 6.820312 -1.101562 6.898438 -1.222656 6.953125 -1.359375 C 7.015625 -1.492188 7.054688 -1.632812 7.078125 -1.78125 L 7.171875 -2.375 L 7.875 -2.375 L 7.78125 0 L 0.515625 0 L 0.515625 -0.5625 L 0.6875 -0.5625 C 0.832031 -0.5625 0.972656 -0.570312 1.109375 -0.59375 C 1.242188 -0.613281 1.363281 -0.65625 1.46875 -0.71875 C 1.570312 -0.78125 1.648438 -0.867188 1.703125 -0.984375 C 1.765625 -1.109375 1.796875 -1.273438 1.796875 -1.484375 L 1.796875 -8.140625 C 1.796875 -8.347656 1.765625 -8.515625 1.703125 -8.640625 C 1.648438 -8.773438 1.570312 -8.875 1.46875 -8.9375 C 1.375 -9.007812 1.257812 -9.054688 1.125 -9.078125 C 0.988281 -9.097656 0.84375 -9.109375 0.6875 -9.109375 L 0.515625 -9.109375 L 0.515625 -9.6875 L 7.34375 -9.6875 L 7.421875 -7.3125 L 6.71875 -7.3125 L 6.65625 -7.890625 C 6.632812 -8.046875 6.597656 -8.1875 6.546875 -8.3125 C 6.492188 -8.445312 6.421875 -8.566406 6.328125 -8.671875 C 6.234375 -8.773438 6.113281 -8.851562 5.96875 -8.90625 C 5.820312 -8.96875 5.648438 -9 5.453125 -9 L 3.171875 -9 L 3.171875 -5.390625 L 6.4375 -5.390625 L 6.4375 -4.734375 L 3.171875 -4.734375 Z M 3.171875 -0.671875 "/></g></g></g><g fill="#5e17eb" fill-opacity="1"><g transform="translate(29.47, 65.424853)"><g><path d="M 6.3125 -8.71875 C 6.3125 -8.800781 6.289062 -8.867188 6.25 -8.921875 C 6.21875 -8.972656 6.171875 -9.007812 6.109375 -9.03125 C 6.046875 -9.0625 5.96875 -9.082031 5.875 -9.09375 C 5.789062 -9.101562 5.695312 -9.109375 5.59375 -9.109375 L 5.546875 -9.109375 L 5.546875 -9.6875 L 8.515625 -9.6875 L 8.515625 -9.109375 L 8.390625 -9.109375 C 8.265625 -9.109375 8.144531 -9.09375 8.03125 -9.0625 C 7.925781 -9.03125 7.820312 -8.972656 7.71875 -8.890625 C 7.613281 -8.816406 7.507812 -8.71875 7.40625 -8.59375 C 7.300781 -8.476562 7.179688 -8.328125 7.046875 -8.140625 L 5.09375 -5.296875 L 7.578125 -1.296875 C 7.773438 -1.023438 7.960938 -0.832031 8.140625 -0.71875 C 8.316406 -0.613281 8.492188 -0.5625 8.671875 -0.5625 L 8.84375 -0.5625 L 8.84375 0 L 5.171875 0 L 5.171875 -0.5625 L 5.25 -0.5625 C 5.789062 -0.5625 6.0625 -0.710938 6.0625 -1.015625 C 6.0625 -1.066406 6.054688 -1.113281 6.046875 -1.15625 C 6.035156 -1.207031 6.015625 -1.265625 5.984375 -1.328125 C 5.953125 -1.398438 5.90625 -1.484375 5.84375 -1.578125 C 5.78125 -1.679688 5.703125 -1.804688 5.609375 -1.953125 L 4.265625 -4.109375 L 2.765625 -1.890625 C 2.722656 -1.828125 2.679688 -1.757812 2.640625 -1.6875 C 2.609375 -1.613281 2.570312 -1.535156 2.53125 -1.453125 C 2.5 -1.378906 2.472656 -1.300781 2.453125 -1.21875 C 2.429688 -1.132812 2.421875 -1.0625 2.421875 -1 C 2.421875 -0.84375 2.488281 -0.726562 2.625 -0.65625 C 2.769531 -0.59375 2.992188 -0.5625 3.296875 -0.5625 L 3.34375 -0.5625 L 3.34375 0 L 0.109375 0 L 0.109375 -0.5625 L 0.1875 -0.5625 C 0.351562 -0.5625 0.492188 -0.578125 0.609375 -0.609375 C 0.734375 -0.648438 0.847656 -0.707031 0.953125 -0.78125 C 1.054688 -0.851562 1.160156 -0.945312 1.265625 -1.0625 C 1.367188 -1.1875 1.484375 -1.335938 1.609375 -1.515625 L 3.875 -4.765625 L 1.625 -8.390625 C 1.46875 -8.648438 1.285156 -8.832031 1.078125 -8.9375 C 0.867188 -9.050781 0.664062 -9.109375 0.46875 -9.109375 L 0.28125 -9.109375 L 0.28125 -9.6875 L 3.953125 -9.6875 L 3.953125 -9.109375 L 3.921875 -9.109375 C 3.765625 -9.109375 3.632812 -9.097656 3.53125 -9.078125 C 3.4375 -9.054688 3.359375 -9.03125 3.296875 -9 C 3.242188 -8.96875 3.203125 -8.925781 3.171875 -8.875 C 3.148438 -8.820312 3.140625 -8.769531 3.140625 -8.71875 C 3.140625 -8.675781 3.144531 -8.628906 3.15625 -8.578125 C 3.164062 -8.535156 3.179688 -8.484375 3.203125 -8.421875 C 3.222656 -8.367188 3.253906 -8.300781 3.296875 -8.21875 C 3.335938 -8.132812 3.394531 -8.035156 3.46875 -7.921875 L 4.6875 -5.9375 L 5.984375 -7.890625 C 6.078125 -8.046875 6.15625 -8.191406 6.21875 -8.328125 C 6.28125 -8.460938 6.3125 -8.59375 6.3125 -8.71875 Z M 6.3125 -8.71875 "/></g></g></g><g fill="#5e17eb" fill-opacity="1"><g transform="translate(40.026399, 65.424853)"><g><path d="M 0.515625 0 L 0.515625 -0.5625 L 0.6875 -0.5625 C 0.84375 -0.5625 0.988281 -0.570312 1.125 -0.59375 C 1.257812 -0.625 1.375 -0.671875 1.46875 -0.734375 C 1.570312 -0.804688 1.648438 -0.90625 1.703125 -1.03125 C 1.765625 -1.15625 1.796875 -1.328125 1.796875 -1.546875 L 1.796875 -8.1875 C 1.796875 -8.382812 1.765625 -8.546875 1.703125 -8.671875 C 1.648438 -8.796875 1.570312 -8.890625 1.46875 -8.953125 C 1.363281 -9.015625 1.242188 -9.054688 1.109375 -9.078125 C 0.972656 -9.097656 0.832031 -9.109375 0.6875 -9.109375 L 0.515625 -9.109375 L 0.515625 -9.6875 L 4.328125 -9.6875 C 4.890625 -9.6875 5.378906 -9.617188 5.796875 -9.484375 C 6.222656 -9.359375 6.570312 -9.171875 6.84375 -8.921875 C 7.125 -8.679688 7.328125 -8.382812 7.453125 -8.03125 C 7.585938 -7.6875 7.65625 -7.289062 7.65625 -6.84375 C 7.65625 -6.445312 7.59375 -6.0625 7.46875 -5.6875 C 7.34375 -5.3125 7.132812 -4.984375 6.84375 -4.703125 C 6.5625 -4.421875 6.1875 -4.191406 5.71875 -4.015625 C 5.257812 -3.847656 4.695312 -3.765625 4.03125 -3.765625 L 3.171875 -3.765625 L 3.171875 -1.484375 C 3.171875 -1.273438 3.195312 -1.109375 3.25 -0.984375 C 3.3125 -0.867188 3.394531 -0.78125 3.5 -0.71875 C 3.601562 -0.65625 3.722656 -0.613281 3.859375 -0.59375 C 3.992188 -0.570312 4.132812 -0.5625 4.28125 -0.5625 L 4.734375 -0.5625 L 4.734375 0 Z M 3.171875 -4.40625 L 3.890625 -4.40625 C 4.304688 -4.40625 4.660156 -4.445312 4.953125 -4.53125 C 5.242188 -4.625 5.476562 -4.765625 5.65625 -4.953125 C 5.84375 -5.148438 5.976562 -5.398438 6.0625 -5.703125 C 6.15625 -6.003906 6.203125 -6.367188 6.203125 -6.796875 C 6.203125 -7.171875 6.160156 -7.5 6.078125 -7.78125 C 6.003906 -8.0625 5.882812 -8.296875 5.71875 -8.484375 C 5.550781 -8.671875 5.332031 -8.804688 5.0625 -8.890625 C 4.800781 -8.984375 4.476562 -9.03125 4.09375 -9.03125 L 3.171875 -9.03125 Z M 3.171875 -4.40625 "/></g></g></g><g fill="#5e17eb" fill-opacity="1"><g transform="translate(49.821063, 65.424853)"><g><path d="M 3.171875 -0.671875 L 5.78125 -0.671875 C 6 -0.671875 6.179688 -0.703125 6.328125 -0.765625 C 6.484375 -0.828125 6.613281 -0.90625 6.71875 -1 C 6.820312 -1.101562 6.898438 -1.222656 6.953125 -1.359375 C 7.015625 -1.492188 7.054688 -1.632812 7.078125 -1.78125 L 7.171875 -2.375 L 7.875 -2.375 L 7.78125 0 L 0.515625 0 L 0.515625 -0.5625 L 0.6875 -0.5625 C 0.832031 -0.5625 0.972656 -0.570312 1.109375 -0.59375 C 1.242188 -0.613281 1.363281 -0.65625 1.46875 -0.71875 C 1.570312 -0.78125 1.648438 -0.867188 1.703125 -0.984375 C 1.765625 -1.109375 1.796875 -1.273438 1.796875 -1.484375 L 1.796875 -8.140625 C 1.796875 -8.347656 1.765625 -8.515625 1.703125 -8.640625 C 1.648438 -8.773438 1.570312 -8.875 1.46875 -8.9375 C 1.375 -9.007812 1.257812 -9.054688 1.125 -9.078125 C 0.988281 -9.097656 0.84375 -9.109375 0.6875 -9.109375 L 0.515625 -9.109375 L 0.515625 -9.6875 L 7.34375 -9.6875 L 7.421875 -7.3125 L 6.71875 -7.3125 L 6.65625 -7.890625 C 6.632812 -8.046875 6.597656 -8.1875 6.546875 -8.3125 C 6.492188 -8.445312 6.421875 -8.566406 6.328125 -8.671875 C 6.234375 -8.773438 6.113281 -8.851562 5.96875 -8.90625 C 5.820312 -8.96875 5.648438 -9 5.453125 -9 L 3.171875 -9 L 3.171875 -5.390625 L 6.4375 -5.390625 L 6.4375 -4.734375 L 3.171875 -4.734375 Z M 3.171875 -0.671875 "/></g></g></g><g fill="#5e17eb" fill-opacity="1"><g transform="translate(59.874056, 65.424853)"><g><path d="M 7.515625 -1.65625 C 7.742188 -1.289062 7.96875 -1.015625 8.1875 -0.828125 C 8.40625 -0.648438 8.65625 -0.5625 8.9375 -0.5625 L 8.984375 -0.5625 L 8.984375 0 L 8.78125 0 C 8.363281 0 8.019531 -0.015625 7.75 -0.046875 C 7.476562 -0.078125 7.242188 -0.132812 7.046875 -0.21875 C 6.859375 -0.3125 6.695312 -0.4375 6.5625 -0.59375 C 6.425781 -0.75 6.28125 -0.957031 6.125 -1.21875 L 4.296875 -4.265625 L 3.171875 -4.265625 L 3.171875 -1.484375 C 3.171875 -1.273438 3.195312 -1.109375 3.25 -0.984375 C 3.3125 -0.867188 3.394531 -0.78125 3.5 -0.71875 C 3.601562 -0.65625 3.722656 -0.613281 3.859375 -0.59375 C 3.992188 -0.570312 4.132812 -0.5625 4.28125 -0.5625 L 4.46875 -0.5625 L 4.46875 0 L 0.515625 0 L 0.515625 -0.5625 L 0.6875 -0.5625 C 0.832031 -0.5625 0.972656 -0.570312 1.109375 -0.59375 C 1.242188 -0.613281 1.363281 -0.65625 1.46875 -0.71875 C 1.570312 -0.78125 1.648438 -0.867188 1.703125 -0.984375 C 1.765625 -1.109375 1.796875 -1.273438 1.796875 -1.484375 L 1.796875 -8.1875 C 1.796875 -8.382812 1.765625 -8.546875 1.703125 -8.671875 C 1.648438 -8.796875 1.570312 -8.890625 1.46875 -8.953125 C 1.363281 -9.015625 1.242188 -9.054688 1.109375 -9.078125 C 0.972656 -9.097656 0.832031 -9.109375 0.6875 -9.109375 L 0.515625 -9.109375 L 0.515625 -9.6875 L 4.171875 -9.6875 C 5.335938 -9.6875 6.207031 -9.46875 6.78125 -9.03125 C 7.363281 -8.59375 7.65625 -7.9375 7.65625 -7.0625 C 7.65625 -6.695312 7.59375 -6.378906 7.46875 -6.109375 C 7.351562 -5.835938 7.203125 -5.601562 7.015625 -5.40625 C 6.828125 -5.207031 6.613281 -5.039062 6.375 -4.90625 C 6.132812 -4.78125 5.894531 -4.675781 5.65625 -4.59375 Z M 3.171875 -4.90625 L 4.125 -4.90625 C 4.519531 -4.90625 4.847656 -4.945312 5.109375 -5.03125 C 5.378906 -5.125 5.59375 -5.257812 5.75 -5.4375 C 5.914062 -5.613281 6.03125 -5.832031 6.09375 -6.09375 C 6.164062 -6.363281 6.203125 -6.675781 6.203125 -7.03125 C 6.203125 -7.382812 6.160156 -7.6875 6.078125 -7.9375 C 6.003906 -8.195312 5.882812 -8.40625 5.71875 -8.5625 C 5.550781 -8.726562 5.332031 -8.847656 5.0625 -8.921875 C 4.800781 -8.992188 4.476562 -9.03125 4.09375 -9.03125 L 3.171875 -9.03125 Z M 3.171875 -4.90625 "/></g></g></g><g fill="#5e17eb" fill-opacity="1"><g transform="translate(70.370842, 65.424853)"><g><path d="M 0.515625 0 L 0.515625 -0.5625 L 0.6875 -0.5625 C 0.84375 -0.5625 0.988281 -0.570312 1.125 -0.59375 C 1.257812 -0.625 1.375 -0.671875 1.46875 -0.734375 C 1.570312 -0.804688 1.648438 -0.90625 1.703125 -1.03125 C 1.765625 -1.15625 1.796875 -1.328125 1.796875 -1.546875 L 1.796875 -8.140625 C 1.796875 -8.347656 1.765625 -8.515625 1.703125 -8.640625 C 1.648438 -8.773438 1.570312 -8.875 1.46875 -8.9375 C 1.375 -9.007812 1.257812 -9.054688 1.125 -9.078125 C 0.988281 -9.097656 0.84375 -9.109375 0.6875 -9.109375 L 0.515625 -9.109375 L 0.515625 -9.6875 L 4.46875 -9.6875 L 4.46875 -9.109375 L 4.28125 -9.109375 C 4.132812 -9.109375 3.992188 -9.097656 3.859375 -9.078125 C 3.722656 -9.054688 3.601562 -9.007812 3.5 -8.9375 C 3.394531 -8.875 3.3125 -8.773438 3.25 -8.640625 C 3.195312 -8.515625 3.171875 -8.347656 3.171875 -8.140625 L 3.171875 -1.546875 C 3.171875 -1.328125 3.195312 -1.15625 3.25 -1.03125 C 3.3125 -0.90625 3.394531 -0.804688 3.5 -0.734375 C 3.601562 -0.671875 3.722656 -0.625 3.859375 -0.59375 C 3.992188 -0.570312 4.132812 -0.5625 4.28125 -0.5625 L 4.46875 -0.5625 L 4.46875 0 Z M 0.515625 0 "/></g></g></g><g fill="#5e17eb" fill-opacity="1"><g transform="translate(76.95298, 65.424853)"><g><path d="M 8.59375 0 L 8.59375 -0.5625 L 8.640625 -0.5625 C 8.785156 -0.5625 8.914062 -0.570312 9.03125 -0.59375 C 9.15625 -0.613281 9.253906 -0.65625 9.328125 -0.71875 C 9.410156 -0.78125 9.476562 -0.863281 9.53125 -0.96875 C 9.582031 -1.082031 9.609375 -1.234375 9.609375 -1.421875 L 9.609375 -8.671875 L 6.515625 0 L 5.78125 0 L 2.625 -8.640625 L 2.625 -1.546875 C 2.625 -1.328125 2.644531 -1.15625 2.6875 -1.03125 C 2.738281 -0.90625 2.804688 -0.804688 2.890625 -0.734375 C 2.972656 -0.671875 3.078125 -0.625 3.203125 -0.59375 C 3.328125 -0.570312 3.460938 -0.5625 3.609375 -0.5625 L 3.65625 -0.5625 L 3.65625 0 L 0.515625 0 L 0.515625 -0.5625 L 0.6875 -0.5625 C 0.832031 -0.5625 0.972656 -0.570312 1.109375 -0.59375 C 1.242188 -0.613281 1.363281 -0.65625 1.46875 -0.71875 C 1.570312 -0.78125 1.648438 -0.867188 1.703125 -0.984375 C 1.765625 -1.109375 1.796875 -1.273438 1.796875 -1.484375 L 1.796875 -8.1875 C 1.796875 -8.382812 1.765625 -8.546875 1.703125 -8.671875 C 1.648438 -8.796875 1.570312 -8.890625 1.46875 -8.953125 C 1.363281 -9.015625 1.242188 -9.054688 1.109375 -9.078125 C 0.972656 -9.097656 0.832031 -9.109375 0.6875 -9.109375 L 0.515625 -9.109375 L 0.515625 -9.6875 L 3.609375 -9.6875 L 6.421875 -1.921875 L 9.203125 -9.6875 L 12.203125 -9.6875 L 12.203125 -9.109375 L 12.03125 -9.109375 C 11.875 -9.109375 11.726562 -9.097656 11.59375 -9.078125 C 11.457031 -9.054688 11.335938 -9.007812 11.234375 -8.9375 C 11.140625 -8.875 11.0625 -8.773438 11 -8.640625 C 10.945312 -8.515625 10.921875 -8.347656 10.921875 -8.140625 L 10.921875 -1.546875 C 10.921875 -1.328125 10.945312 -1.15625 11 -1.03125 C 11.0625 -0.90625 11.140625 -0.804688 11.234375 -0.734375 C 11.335938 -0.671875 11.457031 -0.625 11.59375 -0.59375 C 11.726562 -0.570312 11.875 -0.5625 12.03125 -0.5625 L 12.203125 -0.5625 L 12.203125 0 Z M 8.59375 0 "/></g></g></g><g fill="#5e17eb" fill-opacity="1"><g transform="translate(91.278305, 65.424853)"><g><path d="M 3.171875 -0.671875 L 5.78125 -0.671875 C 6 -0.671875 6.179688 -0.703125 6.328125 -0.765625 C 6.484375 -0.828125 6.613281 -0.90625 6.71875 -1 C 6.820312 -1.101562 6.898438 -1.222656 6.953125 -1.359375 C 7.015625 -1.492188 7.054688 -1.632812 7.078125 -1.78125 L 7.171875 -2.375 L 7.875 -2.375 L 7.78125 0 L 0.515625 0 L 0.515625 -0.5625 L 0.6875 -0.5625 C 0.832031 -0.5625 0.972656 -0.570312 1.109375 -0.59375 C 1.242188 -0.613281 1.363281 -0.65625 1.46875 -0.71875 C 1.570312 -0.78125 1.648438 -0.867188 1.703125 -0.984375 C 1.765625 -1.109375 1.796875 -1.273438 1.796875 -1.484375 L 1.796875 -8.140625 C 1.796875 -8.347656 1.765625 -8.515625 1.703125 -8.640625 C 1.648438 -8.773438 1.570312 -8.875 1.46875 -8.9375 C 1.375 -9.007812 1.257812 -9.054688 1.125 -9.078125 C 0.988281 -9.097656 0.84375 -9.109375 0.6875 -9.109375 L 0.515625 -9.109375 L 0.515625 -9.6875 L 7.34375 -9.6875 L 7.421875 -7.3125 L 6.71875 -7.3125 L 6.65625 -7.890625 C 6.632812 -8.046875 6.597656 -8.1875 6.546875 -8.3125 C 6.492188 -8.445312 6.421875 -8.566406 6.328125 -8.671875 C 6.234375 -8.773438 6.113281 -8.851562 5.96875 -8.90625 C 5.820312 -8.96875 5.648438 -9 5.453125 -9 L 3.171875 -9 L 3.171875 -5.390625 L 6.4375 -5.390625 L 6.4375 -4.734375 L 3.171875 -4.734375 Z M 3.171875 -0.671875 "/></g></g></g><g fill="#5e17eb" fill-opacity="1"><g transform="translate(101.331298, 65.424853)"><g><path d="M 7.71875 0 L 2.625 -7.8125 L 2.625 -1.546875 C 2.625 -1.328125 2.65625 -1.15625 2.71875 -1.03125 C 2.78125 -0.90625 2.859375 -0.804688 2.953125 -0.734375 C 3.054688 -0.671875 3.175781 -0.625 3.3125 -0.59375 C 3.445312 -0.570312 3.585938 -0.5625 3.734375 -0.5625 L 3.921875 -0.5625 L 3.921875 0 L 0.515625 0 L 0.515625 -0.5625 L 0.6875 -0.5625 C 0.84375 -0.5625 0.988281 -0.570312 1.125 -0.59375 C 1.257812 -0.625 1.375 -0.671875 1.46875 -0.734375 C 1.570312 -0.804688 1.648438 -0.90625 1.703125 -1.03125 C 1.765625 -1.15625 1.796875 -1.328125 1.796875 -1.546875 L 1.796875 -8.1875 C 1.796875 -8.382812 1.765625 -8.546875 1.703125 -8.671875 C 1.648438 -8.796875 1.570312 -8.890625 1.46875 -8.953125 C 1.363281 -9.015625 1.242188 -9.054688 1.109375 -9.078125 C 0.972656 -9.097656 0.832031 -9.109375 0.6875 -9.109375 L 0.515625 -9.109375 L 0.515625 -9.6875 L 3 -9.6875 L 7.859375 -2.1875 L 7.859375 -8.1875 C 7.859375 -8.382812 7.828125 -8.546875 7.765625 -8.671875 C 7.703125 -8.796875 7.617188 -8.890625 7.515625 -8.953125 C 7.421875 -9.015625 7.304688 -9.054688 7.171875 -9.078125 C 7.035156 -9.097656 6.890625 -9.109375 6.734375 -9.109375 L 6.5625 -9.109375 L 6.5625 -9.6875 L 9.96875 -9.6875 L 9.96875 -9.109375 L 9.796875 -9.109375 C 9.640625 -9.109375 9.492188 -9.097656 9.359375 -9.078125 C 9.222656 -9.054688 9.101562 -9.007812 9 -8.9375 C 8.90625 -8.875 8.828125 -8.773438 8.765625 -8.640625 C 8.710938 -8.515625 8.6875 -8.347656 8.6875 -8.140625 L 8.6875 0 Z M 7.71875 0 "/></g></g></g><g fill="#5e17eb" fill-opacity="1"><g transform="translate(113.285309, 65.424853)"><g><path d="M 4.828125 -1.546875 C 4.828125 -1.328125 4.851562 -1.15625 4.90625 -1.03125 C 4.96875 -0.90625 5.046875 -0.804688 5.140625 -0.734375 C 5.242188 -0.671875 5.363281 -0.625 5.5 -0.59375 C 5.644531 -0.570312 5.789062 -0.5625 5.9375 -0.5625 L 6.25 -0.5625 L 6.25 0 L 2.03125 0 L 2.03125 -0.5625 L 2.34375 -0.5625 C 2.488281 -0.5625 2.628906 -0.570312 2.765625 -0.59375 C 2.898438 -0.613281 3.019531 -0.65625 3.125 -0.71875 C 3.226562 -0.78125 3.304688 -0.867188 3.359375 -0.984375 C 3.421875 -1.109375 3.453125 -1.273438 3.453125 -1.484375 L 3.453125 -9 L 2.15625 -9 C 1.957031 -9 1.789062 -8.96875 1.65625 -8.90625 C 1.519531 -8.851562 1.410156 -8.773438 1.328125 -8.671875 C 1.242188 -8.566406 1.179688 -8.445312 1.140625 -8.3125 C 1.097656 -8.1875 1.066406 -8.046875 1.046875 -7.890625 L 0.96875 -7.3125 L 0.265625 -7.3125 L 0.34375 -9.6875 L 7.96875 -9.6875 L 8.046875 -7.3125 L 7.34375 -7.3125 L 7.265625 -7.890625 C 7.253906 -8.046875 7.222656 -8.1875 7.171875 -8.3125 C 7.128906 -8.445312 7.066406 -8.566406 6.984375 -8.671875 C 6.898438 -8.773438 6.789062 -8.851562 6.65625 -8.90625 C 6.519531 -8.96875 6.347656 -9 6.140625 -9 L 4.828125 -9 Z M 4.828125 -1.546875 "/></g></g></g><g fill="#5e17eb" fill-opacity="1"><g transform="translate(123.199198, 65.424853)"><g><path d="M 3.34375 0.125 C 2.90625 0.125 2.515625 0.0820312 2.171875 0 C 1.835938 -0.09375 1.554688 -0.222656 1.328125 -0.390625 C 1.109375 -0.554688 0.941406 -0.753906 0.828125 -0.984375 C 0.710938 -1.222656 0.65625 -1.488281 0.65625 -1.78125 C 0.65625 -2.050781 0.738281 -2.269531 0.90625 -2.4375 C 1.070312 -2.601562 1.3125 -2.6875 1.625 -2.6875 C 1.644531 -2.40625 1.691406 -2.132812 1.765625 -1.875 C 1.835938 -1.613281 1.941406 -1.382812 2.078125 -1.1875 C 2.222656 -0.988281 2.410156 -0.828125 2.640625 -0.703125 C 2.867188 -0.585938 3.140625 -0.53125 3.453125 -0.53125 C 4.066406 -0.53125 4.539062 -0.675781 4.875 -0.96875 C 5.21875 -1.257812 5.390625 -1.679688 5.390625 -2.234375 C 5.390625 -2.484375 5.351562 -2.703125 5.28125 -2.890625 C 5.21875 -3.078125 5.101562 -3.25 4.9375 -3.40625 C 4.769531 -3.570312 4.550781 -3.726562 4.28125 -3.875 C 4.019531 -4.03125 3.691406 -4.1875 3.296875 -4.34375 C 2.878906 -4.519531 2.515625 -4.707031 2.203125 -4.90625 C 1.890625 -5.101562 1.628906 -5.320312 1.421875 -5.5625 C 1.210938 -5.800781 1.054688 -6.066406 0.953125 -6.359375 C 0.847656 -6.660156 0.796875 -6.992188 0.796875 -7.359375 C 0.796875 -7.753906 0.867188 -8.101562 1.015625 -8.40625 C 1.171875 -8.707031 1.378906 -8.960938 1.640625 -9.171875 C 1.910156 -9.378906 2.222656 -9.539062 2.578125 -9.65625 C 2.941406 -9.769531 3.335938 -9.828125 3.765625 -9.828125 C 4.171875 -9.828125 4.53125 -9.78125 4.84375 -9.6875 C 5.15625 -9.601562 5.421875 -9.488281 5.640625 -9.34375 C 5.859375 -9.207031 6.019531 -9.046875 6.125 -8.859375 C 6.238281 -8.679688 6.296875 -8.492188 6.296875 -8.296875 C 6.296875 -8.003906 6.203125 -7.785156 6.015625 -7.640625 C 5.828125 -7.492188 5.566406 -7.421875 5.234375 -7.421875 C 5.234375 -7.628906 5.207031 -7.832031 5.15625 -8.03125 C 5.113281 -8.238281 5.03125 -8.421875 4.90625 -8.578125 C 4.789062 -8.742188 4.632812 -8.878906 4.4375 -8.984375 C 4.238281 -9.085938 4 -9.140625 3.71875 -9.140625 C 3.457031 -9.140625 3.222656 -9.101562 3.015625 -9.03125 C 2.804688 -8.957031 2.628906 -8.851562 2.484375 -8.71875 C 2.347656 -8.582031 2.242188 -8.421875 2.171875 -8.234375 C 2.097656 -8.046875 2.0625 -7.832031 2.0625 -7.59375 C 2.0625 -7.320312 2.09375 -7.082031 2.15625 -6.875 C 2.226562 -6.675781 2.347656 -6.492188 2.515625 -6.328125 C 2.679688 -6.160156 2.898438 -6.003906 3.171875 -5.859375 C 3.441406 -5.710938 3.773438 -5.554688 4.171875 -5.390625 C 4.566406 -5.234375 4.914062 -5.0625 5.21875 -4.875 C 5.53125 -4.695312 5.796875 -4.492188 6.015625 -4.265625 C 6.234375 -4.046875 6.398438 -3.796875 6.515625 -3.515625 C 6.628906 -3.242188 6.6875 -2.9375 6.6875 -2.59375 C 6.6875 -2.164062 6.609375 -1.78125 6.453125 -1.4375 C 6.296875 -1.101562 6.070312 -0.816406 5.78125 -0.578125 C 5.488281 -0.347656 5.132812 -0.171875 4.71875 -0.046875 C 4.3125 0.0664062 3.851562 0.125 3.34375 0.125 Z M 3.34375 0.125 "/></g></g></g><g fill="#5e17eb" fill-opacity="1"><g transform="translate(59.966657, 73.410908)"><g><path d="M 3.125 0 L 0.375 0 L 0.375 -4.140625 L 3.125 -4.140625 L 3.125 -3.4375 L 1.15625 -3.4375 L 1.15625 -2.421875 L 2.921875 -2.421875 L 2.921875 -1.71875 L 1.15625 -1.71875 L 1.15625 -0.703125 L 3.125 -0.703125 Z M 3.125 0 "/></g></g></g><g fill="#5e17eb" fill-opacity="1"><g transform="translate(65.169663, 73.410908)"><g><path d="M 1.15625 0 L 0.375 0 L 0.375 -4.140625 L 1.25 -4.140625 L 2.9375 -1.171875 L 2.9375 -4.140625 L 3.71875 -4.140625 L 3.71875 0 L 2.84375 0 L 1.15625 -2.96875 Z M 1.15625 0 "/></g></g></g><g fill="#5e17eb" fill-opacity="1"><g transform="translate(71.099531, 73.410908)"><g><path d="M 2.234375 0.078125 C 1.878906 0.078125 1.578125 0.0195312 1.328125 -0.09375 C 1.078125 -0.207031 0.867188 -0.363281 0.703125 -0.5625 C 0.535156 -0.769531 0.410156 -1 0.328125 -1.25 C 0.253906 -1.507812 0.21875 -1.785156 0.21875 -2.078125 C 0.21875 -2.359375 0.253906 -2.625 0.328125 -2.875 C 0.410156 -3.132812 0.535156 -3.363281 0.703125 -3.5625 C 0.867188 -3.757812 1.078125 -3.914062 1.328125 -4.03125 C 1.578125 -4.15625 1.878906 -4.21875 2.234375 -4.21875 C 2.765625 -4.21875 3.1875 -4.085938 3.5 -3.828125 C 3.820312 -3.578125 4.023438 -3.25 4.109375 -2.84375 L 3.25 -2.84375 C 3.175781 -3.050781 3.054688 -3.210938 2.890625 -3.328125 C 2.722656 -3.453125 2.5 -3.515625 2.21875 -3.515625 C 1.957031 -3.515625 1.738281 -3.453125 1.5625 -3.328125 C 1.382812 -3.203125 1.25 -3.03125 1.15625 -2.8125 C 1.070312 -2.59375 1.03125 -2.347656 1.03125 -2.078125 C 1.03125 -1.796875 1.078125 -1.546875 1.171875 -1.328125 C 1.265625 -1.109375 1.40625 -0.9375 1.59375 -0.8125 C 1.78125 -0.6875 2.015625 -0.625 2.296875 -0.625 C 2.617188 -0.625 2.875 -0.703125 3.0625 -0.859375 C 3.257812 -1.023438 3.359375 -1.273438 3.359375 -1.609375 L 2.453125 -1.609375 L 2.453125 -2.25 L 4.140625 -2.25 L 4.140625 0 L 3.4375 0 L 3.4375 -0.46875 C 3.289062 -0.257812 3.109375 -0.113281 2.890625 -0.03125 C 2.671875 0.0390625 2.453125 0.078125 2.234375 0.078125 Z M 2.234375 0.078125 "/></g></g></g><g fill="#5e17eb" fill-opacity="1"><g transform="translate(77.37656, 73.410908)"><g><path d="M 1.15625 0 L 0.375 0 L 0.375 -4.140625 L 1.15625 -4.140625 Z M 1.15625 0 "/></g></g></g><g fill="#5e17eb" fill-opacity="1"><g transform="translate(80.729852, 73.410908)"><g><path d="M 1.15625 0 L 0.375 0 L 0.375 -4.140625 L 1.25 -4.140625 L 2.9375 -1.171875 L 2.9375 -4.140625 L 3.71875 -4.140625 L 3.71875 0 L 2.84375 0 L 1.15625 -2.96875 Z M 1.15625 0 "/></g></g></g><g fill="#5e17eb" fill-opacity="1"><g transform="translate(86.659719, 73.410908)"><g><path d="M 3.125 0 L 0.375 0 L 0.375 -4.140625 L 3.125 -4.140625 L 3.125 -3.4375 L 1.15625 -3.4375 L 1.15625 -2.421875 L 2.921875 -2.421875 L 2.921875 -1.71875 L 1.15625 -1.71875 L 1.15625 -0.703125 L 3.125 -0.703125 Z M 3.125 0 "/></g></g></g></svg>
