<svg xmlns="http://www.w3.org/2000/svg" xmlns:xlink="http://www.w3.org/1999/xlink" width="200" zoomAndPan="magnify" viewBox="0 0 150 89.999999" height="120" preserveAspectRatio="xMidYMid meet" version="1.0"><defs><g/><clipPath id="96d86fbc3c"><path d="M 56.574219 12.742188 L 68 12.742188 L 68 15 L 56.574219 15 Z M 56.574219 12.742188 " clip-rule="nonzero"/></clipPath><clipPath id="0c6d6a9c83"><path d="M 66.0625 14.988281 C 66.679688 14.988281 67.183594 14.484375 67.183594 13.867188 C 67.183594 13.246094 66.679688 12.742188 66.0625 12.742188 L 57.703125 12.742188 C 57.085938 12.742188 56.582031 13.246094 56.582031 13.867188 C 56.582031 14.484375 57.085938 14.988281 57.703125 14.988281 Z M 66.0625 14.988281 " clip-rule="nonzero"/></clipPath><linearGradient x1="30.698263" gradientTransform="matrix(0.254518, 0, 0, 0.254518, 56.581799, 12.742975)" y1="-8.426365" x2="10.962808" gradientUnits="userSpaceOnUse" y2="17.247195" id="7197f6570c"><stop stop-opacity="1" stop-color="rgb(100%, 34.370422%, 23.625183%)" offset="0"/><stop stop-opacity="1" stop-color="rgb(100%, 34.474182%, 23.655701%)" offset="0.03125"/><stop stop-opacity="1" stop-color="rgb(100%, 34.681702%, 23.716736%)" offset="0.0625"/><stop stop-opacity="1" stop-color="rgb(100%, 34.889221%, 23.777771%)" offset="0.09375"/><stop stop-opacity="1" stop-color="rgb(100%, 35.096741%, 23.83728%)" offset="0.125"/><stop stop-opacity="1" stop-color="rgb(100%, 35.305786%, 23.898315%)" offset="0.15625"/><stop stop-opacity="1" stop-color="rgb(100%, 35.513306%, 23.959351%)" offset="0.1875"/><stop stop-opacity="1" stop-color="rgb(100%, 35.720825%, 24.01886%)" offset="0.215942"/><stop stop-opacity="1" stop-color="rgb(100%, 35.824585%, 24.049377%)" offset="0.21875"/><stop stop-opacity="1" stop-color="rgb(100%, 35.928345%, 24.079895%)" offset="0.25"/><stop stop-opacity="1" stop-color="rgb(100%, 36.135864%, 24.14093%)" offset="0.28125"/><stop stop-opacity="1" stop-color="rgb(100%, 36.343384%, 24.201965%)" offset="0.3125"/><stop stop-opacity="1" stop-color="rgb(100%, 36.550903%, 24.261475%)" offset="0.34375"/><stop stop-opacity="1" stop-color="rgb(100%, 36.758423%, 24.32251%)" offset="0.375"/><stop stop-opacity="1" stop-color="rgb(100%, 36.965942%, 24.383545%)" offset="0.40625"/><stop stop-opacity="1" stop-color="rgb(100%, 37.173462%, 24.443054%)" offset="0.4375"/><stop stop-opacity="1" stop-color="rgb(100%, 37.380981%, 24.504089%)" offset="0.46875"/><stop stop-opacity="1" stop-color="rgb(100%, 37.590027%, 24.565125%)" offset="0.5"/><stop stop-opacity="1" stop-color="rgb(100%, 37.797546%, 24.62616%)" offset="0.53125"/><stop stop-opacity="1" stop-color="rgb(100%, 38.005066%, 24.685669%)" offset="0.5625"/><stop stop-opacity="1" stop-color="rgb(100%, 38.212585%, 24.746704%)" offset="0.59375"/><stop stop-opacity="1" stop-color="rgb(100%, 38.420105%, 24.807739%)" offset="0.625"/><stop stop-opacity="1" stop-color="rgb(100%, 38.627625%, 24.867249%)" offset="0.65625"/><stop stop-opacity="1" stop-color="rgb(100%, 38.835144%, 24.928284%)" offset="0.6875"/><stop stop-opacity="1" stop-color="rgb(100%, 39.042664%, 24.989319%)" offset="0.71875"/><stop stop-opacity="1" stop-color="rgb(100%, 39.250183%, 25.050354%)" offset="0.75"/><stop stop-opacity="1" stop-color="rgb(100%, 39.457703%, 25.109863%)" offset="0.78125"/><stop stop-opacity="1" stop-color="rgb(100%, 39.666748%, 25.170898%)" offset="0.784058"/><stop stop-opacity="1" stop-color="rgb(100%, 39.770508%, 25.201416%)" offset="0.8125"/><stop stop-opacity="1" stop-color="rgb(100%, 39.874268%, 25.231934%)" offset="0.84375"/><stop stop-opacity="1" stop-color="rgb(100%, 40.081787%, 25.291443%)" offset="0.875"/><stop stop-opacity="1" stop-color="rgb(100%, 40.289307%, 25.352478%)" offset="0.90625"/><stop stop-opacity="1" stop-color="rgb(100%, 40.496826%, 25.413513%)" offset="0.9375"/><stop stop-opacity="1" stop-color="rgb(100%, 40.704346%, 25.473022%)" offset="0.96875"/><stop stop-opacity="1" stop-color="rgb(100%, 40.911865%, 25.534058%)" offset="1"/></linearGradient><clipPath id="e6220d5469"><path d="M 58 16 L 66 16 L 66 30 L 58 30 Z M 58 16 " clip-rule="nonzero"/></clipPath><clipPath id="007c058e07"><path d="M 58.074219 29.761719 C 58.855469 29.875 60.683594 29.964844 62.019531 28.683594 C 63.554688 27.210938 65.109375 26.121094 65.691406 25.730469 L 65.691406 16.007812 L 58.074219 16.007812 Z M 58.074219 29.761719 " clip-rule="nonzero"/></clipPath><linearGradient x1="35.61345" gradientTransform="matrix(0.254518, 0, 0, 0.254518, 56.581799, 12.742975)" y1="12.694293" x2="-1.997546" gradientUnits="userSpaceOnUse" y2="61.622212" id="31db9e2b13"><stop stop-opacity="1" stop-color="rgb(100%, 37.191772%, 24.449158%)" offset="0"/><stop stop-opacity="1" stop-color="rgb(100%, 37.290955%, 24.478149%)" offset="0.015625"/><stop stop-opacity="1" stop-color="rgb(100%, 37.489319%, 24.536133%)" offset="0.03125"/><stop stop-opacity="1" stop-color="rgb(100%, 37.686157%, 24.594116%)" offset="0.046875"/><stop stop-opacity="1" stop-color="rgb(100%, 37.884521%, 24.650574%)" offset="0.0625"/><stop stop-opacity="1" stop-color="rgb(100%, 38.082886%, 24.708557%)" offset="0.078125"/><stop stop-opacity="1" stop-color="rgb(100%, 38.279724%, 24.766541%)" offset="0.09375"/><stop stop-opacity="1" stop-color="rgb(100%, 38.478088%, 24.824524%)" offset="0.109375"/><stop stop-opacity="1" stop-color="rgb(100%, 38.676453%, 24.882507%)" offset="0.125"/><stop stop-opacity="1" stop-color="rgb(100%, 38.873291%, 24.940491%)" offset="0.140625"/><stop stop-opacity="1" stop-color="rgb(100%, 39.071655%, 24.996948%)" offset="0.15625"/><stop stop-opacity="1" stop-color="rgb(100%, 39.27002%, 25.054932%)" offset="0.171875"/><stop stop-opacity="1" stop-color="rgb(100%, 39.468384%, 25.112915%)" offset="0.1875"/><stop stop-opacity="1" stop-color="rgb(100%, 39.665222%, 25.170898%)" offset="0.203125"/><stop stop-opacity="1" stop-color="rgb(100%, 39.863586%, 25.228882%)" offset="0.21875"/><stop stop-opacity="1" stop-color="rgb(100%, 40.061951%, 25.286865%)" offset="0.234375"/><stop stop-opacity="1" stop-color="rgb(100%, 40.258789%, 25.343323%)" offset="0.25"/><stop stop-opacity="1" stop-color="rgb(100%, 40.457153%, 25.401306%)" offset="0.265625"/><stop stop-opacity="1" stop-color="rgb(100%, 40.655518%, 25.45929%)" offset="0.28125"/><stop stop-opacity="1" stop-color="rgb(100%, 40.852356%, 25.517273%)" offset="0.295474"/><stop stop-opacity="1" stop-color="rgb(100%, 40.951538%, 25.546265%)" offset="0.296875"/><stop stop-opacity="1" stop-color="rgb(100%, 41.05072%, 25.575256%)" offset="0.3125"/><stop stop-opacity="1" stop-color="rgb(100%, 41.249084%, 25.63324%)" offset="0.328125"/><stop stop-opacity="1" stop-color="rgb(100%, 41.445923%, 25.689697%)" offset="0.34375"/><stop stop-opacity="1" stop-color="rgb(100%, 41.644287%, 25.747681%)" offset="0.359375"/><stop stop-opacity="1" stop-color="rgb(100%, 41.842651%, 25.805664%)" offset="0.375"/><stop stop-opacity="1" stop-color="rgb(100%, 42.03949%, 25.863647%)" offset="0.390625"/><stop stop-opacity="1" stop-color="rgb(100%, 42.237854%, 25.921631%)" offset="0.40625"/><stop stop-opacity="1" stop-color="rgb(100%, 42.436218%, 25.979614%)" offset="0.421875"/><stop stop-opacity="1" stop-color="rgb(100%, 42.633057%, 26.037598%)" offset="0.4375"/><stop stop-opacity="1" stop-color="rgb(100%, 42.831421%, 26.094055%)" offset="0.453125"/><stop stop-opacity="1" stop-color="rgb(100%, 43.029785%, 26.152039%)" offset="0.46875"/><stop stop-opacity="1" stop-color="rgb(100%, 43.228149%, 26.210022%)" offset="0.484375"/><stop stop-opacity="1" stop-color="rgb(100%, 43.424988%, 26.268005%)" offset="0.5"/><stop stop-opacity="1" stop-color="rgb(100%, 43.623352%, 26.325989%)" offset="0.515625"/><stop stop-opacity="1" stop-color="rgb(100%, 43.821716%, 26.383972%)" offset="0.53125"/><stop stop-opacity="1" stop-color="rgb(100%, 44.018555%, 26.44043%)" offset="0.546875"/><stop stop-opacity="1" stop-color="rgb(100%, 44.216919%, 26.498413%)" offset="0.5625"/><stop stop-opacity="1" stop-color="rgb(100%, 44.415283%, 26.556396%)" offset="0.578125"/><stop stop-opacity="1" stop-color="rgb(100%, 44.612122%, 26.61438%)" offset="0.59375"/><stop stop-opacity="1" stop-color="rgb(100%, 44.810486%, 26.672363%)" offset="0.609375"/><stop stop-opacity="1" stop-color="rgb(100%, 45.00885%, 26.730347%)" offset="0.625"/><stop stop-opacity="1" stop-color="rgb(100%, 45.205688%, 26.786804%)" offset="0.640625"/><stop stop-opacity="1" stop-color="rgb(100%, 45.404053%, 26.844788%)" offset="0.65625"/><stop stop-opacity="1" stop-color="rgb(100%, 45.602417%, 26.902771%)" offset="0.671875"/><stop stop-opacity="1" stop-color="rgb(100%, 45.799255%, 26.960754%)" offset="0.6875"/><stop stop-opacity="1" stop-color="rgb(100%, 45.99762%, 27.018738%)" offset="0.703125"/><stop stop-opacity="1" stop-color="rgb(100%, 46.195984%, 27.076721%)" offset="0.704526"/><stop stop-opacity="1" stop-color="rgb(100%, 46.295166%, 27.105713%)" offset="0.71875"/><stop stop-opacity="1" stop-color="rgb(100%, 46.392822%, 27.133179%)" offset="0.734375"/><stop stop-opacity="1" stop-color="rgb(100%, 46.591187%, 27.191162%)" offset="0.75"/><stop stop-opacity="1" stop-color="rgb(100%, 46.789551%, 27.249146%)" offset="0.765625"/><stop stop-opacity="1" stop-color="rgb(100%, 46.986389%, 27.307129%)" offset="0.78125"/><stop stop-opacity="1" stop-color="rgb(100%, 47.184753%, 27.365112%)" offset="0.796875"/><stop stop-opacity="1" stop-color="rgb(100%, 47.383118%, 27.423096%)" offset="0.8125"/><stop stop-opacity="1" stop-color="rgb(100%, 47.581482%, 27.479553%)" offset="0.828125"/><stop stop-opacity="1" stop-color="rgb(100%, 47.77832%, 27.537537%)" offset="0.84375"/><stop stop-opacity="1" stop-color="rgb(100%, 47.976685%, 27.59552%)" offset="0.859375"/><stop stop-opacity="1" stop-color="rgb(100%, 48.175049%, 27.653503%)" offset="0.875"/><stop stop-opacity="1" stop-color="rgb(100%, 48.371887%, 27.711487%)" offset="0.890625"/><stop stop-opacity="1" stop-color="rgb(100%, 48.570251%, 27.76947%)" offset="0.90625"/><stop stop-opacity="1" stop-color="rgb(100%, 48.768616%, 27.825928%)" offset="0.921875"/><stop stop-opacity="1" stop-color="rgb(100%, 48.965454%, 27.883911%)" offset="0.9375"/><stop stop-opacity="1" stop-color="rgb(100%, 49.163818%, 27.941895%)" offset="0.953125"/><stop stop-opacity="1" stop-color="rgb(100%, 49.362183%, 27.999878%)" offset="0.96875"/><stop stop-opacity="1" stop-color="rgb(100%, 49.559021%, 28.057861%)" offset="0.984375"/><stop stop-opacity="1" stop-color="rgb(100%, 49.757385%, 28.115845%)" offset="1"/></linearGradient><clipPath id="076450d2f9"><path d="M 71 15 L 92.574219 15 L 92.574219 49.492188 L 71 49.492188 Z M 71 15 " clip-rule="nonzero"/></clipPath><clipPath id="478c6539bf"><path d="M 79.78125 25.507812 C 79.78125 27.238281 78.851562 28.796875 77.355469 29.574219 C 73.742188 31.453125 71.578125 35.152344 71.707031 39.226562 C 71.878906 44.699219 76.300781 49.15625 81.769531 49.367188 C 84.648438 49.476562 87.382812 48.445312 89.457031 46.445312 C 91.535156 44.449219 92.675781 41.761719 92.675781 38.882812 C 92.675781 34.984375 90.535156 31.429688 87.082031 29.605469 C 85.550781 28.796875 84.597656 27.242188 84.597656 25.554688 L 84.597656 15.648438 L 79.78125 15.648438 Z M 89.753906 36.300781 C 90.105469 36.300781 90.390625 36.585938 90.390625 36.9375 C 90.390625 37.289062 90.105469 37.574219 89.753906 37.574219 C 89.40625 37.574219 89.121094 37.289062 89.121094 36.9375 C 89.121094 36.585938 89.40625 36.300781 89.753906 36.300781 Z M 89.398438 41.351562 C 89.75 41.351562 90.03125 41.636719 90.03125 41.988281 C 90.03125 42.339844 89.75 42.625 89.398438 42.625 C 89.046875 42.625 88.761719 42.339844 88.761719 41.988281 C 88.757812 41.636719 89.042969 41.351562 89.398438 41.351562 Z M 87.515625 30.777344 C 87.867188 30.777344 88.152344 31.0625 88.152344 31.410156 C 88.152344 31.761719 87.867188 32.046875 87.515625 32.046875 C 87.164062 32.046875 86.878906 31.761719 86.878906 31.410156 C 86.878906 31.0625 87.164062 30.777344 87.515625 30.777344 Z M 86.878906 45.148438 C 87.230469 45.148438 87.515625 45.433594 87.515625 45.785156 C 87.515625 46.136719 87.230469 46.421875 86.878906 46.421875 C 86.527344 46.421875 86.242188 46.136719 86.242188 45.785156 C 86.242188 45.433594 86.527344 45.148438 86.878906 45.148438 Z M 85.613281 34.878906 C 85.964844 34.878906 86.25 35.164062 86.25 35.515625 C 86.25 35.867188 85.964844 36.152344 85.613281 36.152344 C 85.261719 36.152344 84.976562 35.867188 84.976562 35.515625 C 84.976562 35.164062 85.261719 34.878906 85.613281 34.878906 Z M 85.613281 40.421875 C 85.964844 40.421875 86.25 40.707031 86.25 41.058594 C 86.25 41.410156 85.964844 41.695312 85.613281 41.695312 C 85.261719 41.695312 84.976562 41.410156 84.976562 41.058594 C 84.976562 40.707031 85.261719 40.421875 85.613281 40.421875 Z M 74.847656 41.695312 C 74.496094 41.695312 74.210938 41.410156 74.210938 41.058594 C 74.210938 40.707031 74.496094 40.421875 74.847656 40.421875 C 75.199219 40.421875 75.484375 40.707031 75.484375 41.058594 C 75.484375 41.410156 75.199219 41.695312 74.847656 41.695312 Z M 75.714844 35.992188 C 75.367188 35.992188 75.082031 35.707031 75.082031 35.355469 C 75.082031 35.003906 75.367188 34.71875 75.714844 34.71875 C 76.066406 34.71875 76.351562 35.003906 76.351562 35.355469 C 76.351562 35.707031 76.066406 35.992188 75.714844 35.992188 Z M 77.953125 45.328125 C 77.601562 45.328125 77.316406 45.042969 77.316406 44.691406 C 77.316406 44.339844 77.601562 44.054688 77.953125 44.054688 C 78.304688 44.054688 78.589844 44.339844 78.589844 44.691406 C 78.589844 45.042969 78.304688 45.328125 77.953125 45.328125 Z M 80.246094 41.695312 C 79.894531 41.695312 79.609375 41.410156 79.609375 41.058594 C 79.609375 40.707031 79.894531 40.421875 80.246094 40.421875 C 80.59375 40.421875 80.878906 40.707031 80.878906 41.058594 C 80.878906 41.410156 80.59375 41.695312 80.246094 41.695312 Z M 80.382812 36.9375 C 80.03125 36.9375 79.746094 36.652344 79.746094 36.300781 C 79.746094 35.949219 80.03125 35.664062 80.382812 35.664062 C 80.734375 35.664062 81.019531 35.949219 81.019531 36.300781 C 81.019531 36.652344 80.734375 36.9375 80.382812 36.9375 Z M 82.191406 46.410156 C 82.542969 46.410156 82.828125 46.695312 82.828125 47.046875 C 82.828125 47.398438 82.542969 47.683594 82.191406 47.683594 C 81.839844 47.683594 81.554688 47.398438 81.554688 47.046875 C 81.554688 46.695312 81.839844 46.410156 82.191406 46.410156 Z M 81.019531 31.414062 C 81.019531 31.765625 80.734375 32.050781 80.382812 32.050781 C 80.03125 32.050781 79.746094 31.765625 79.746094 31.414062 C 79.746094 31.0625 80.03125 30.777344 80.382812 30.777344 C 80.734375 30.777344 81.019531 31.0625 81.019531 31.414062 Z M 81.019531 31.414062 " clip-rule="nonzero"/></clipPath><linearGradient x1="151.193421" gradientTransform="matrix(0.254518, 0, 0, 0.254518, 56.581799, 12.742975)" y1="18.933137" x2="56.330648" gradientUnits="userSpaceOnUse" y2="142.339552" id="5abed5047f"><stop stop-opacity="1" stop-color="rgb(100%, 23.751831%, 20.527649%)" offset="0"/><stop stop-opacity="1" stop-color="rgb(100%, 23.876953%, 20.56427%)" offset="0.0078125"/><stop stop-opacity="1" stop-color="rgb(100%, 24.125671%, 20.635986%)" offset="0.015625"/><stop stop-opacity="1" stop-color="rgb(100%, 24.375916%, 20.709229%)" offset="0.0234375"/><stop stop-opacity="1" stop-color="rgb(100%, 24.624634%, 20.782471%)" offset="0.03125"/><stop stop-opacity="1" stop-color="rgb(100%, 24.874878%, 20.855713%)" offset="0.0390625"/><stop stop-opacity="1" stop-color="rgb(100%, 25.125122%, 20.927429%)" offset="0.046875"/><stop stop-opacity="1" stop-color="rgb(100%, 25.37384%, 21.000671%)" offset="0.0546875"/><stop stop-opacity="1" stop-color="rgb(100%, 25.624084%, 21.073914%)" offset="0.0625"/><stop stop-opacity="1" stop-color="rgb(100%, 25.872803%, 21.14563%)" offset="0.0703125"/><stop stop-opacity="1" stop-color="rgb(100%, 26.123047%, 21.218872%)" offset="0.078125"/><stop stop-opacity="1" stop-color="rgb(100%, 26.371765%, 21.292114%)" offset="0.0859375"/><stop stop-opacity="1" stop-color="rgb(100%, 26.622009%, 21.365356%)" offset="0.09375"/><stop stop-opacity="1" stop-color="rgb(100%, 26.870728%, 21.437073%)" offset="0.101562"/><stop stop-opacity="1" stop-color="rgb(100%, 27.120972%, 21.510315%)" offset="0.109375"/><stop stop-opacity="1" stop-color="rgb(100%, 27.36969%, 21.583557%)" offset="0.117188"/><stop stop-opacity="1" stop-color="rgb(100%, 27.619934%, 21.656799%)" offset="0.125"/><stop stop-opacity="1" stop-color="rgb(100%, 27.868652%, 21.728516%)" offset="0.132812"/><stop stop-opacity="1" stop-color="rgb(100%, 28.118896%, 21.801758%)" offset="0.140625"/><stop stop-opacity="1" stop-color="rgb(100%, 28.369141%, 21.875%)" offset="0.148438"/><stop stop-opacity="1" stop-color="rgb(100%, 28.617859%, 21.946716%)" offset="0.15625"/><stop stop-opacity="1" stop-color="rgb(100%, 28.868103%, 22.019958%)" offset="0.164062"/><stop stop-opacity="1" stop-color="rgb(100%, 29.116821%, 22.093201%)" offset="0.171875"/><stop stop-opacity="1" stop-color="rgb(100%, 29.367065%, 22.166443%)" offset="0.179687"/><stop stop-opacity="1" stop-color="rgb(100%, 29.615784%, 22.238159%)" offset="0.1875"/><stop stop-opacity="1" stop-color="rgb(100%, 29.866028%, 22.311401%)" offset="0.195312"/><stop stop-opacity="1" stop-color="rgb(100%, 30.114746%, 22.384644%)" offset="0.203125"/><stop stop-opacity="1" stop-color="rgb(100%, 30.36499%, 22.45636%)" offset="0.210938"/><stop stop-opacity="1" stop-color="rgb(100%, 30.613708%, 22.529602%)" offset="0.21875"/><stop stop-opacity="1" stop-color="rgb(100%, 30.863953%, 22.602844%)" offset="0.226562"/><stop stop-opacity="1" stop-color="rgb(100%, 31.114197%, 22.676086%)" offset="0.234375"/><stop stop-opacity="1" stop-color="rgb(100%, 31.362915%, 22.747803%)" offset="0.242187"/><stop stop-opacity="1" stop-color="rgb(100%, 31.613159%, 22.821045%)" offset="0.25"/><stop stop-opacity="1" stop-color="rgb(100%, 31.861877%, 22.894287%)" offset="0.257812"/><stop stop-opacity="1" stop-color="rgb(100%, 32.112122%, 22.966003%)" offset="0.265625"/><stop stop-opacity="1" stop-color="rgb(100%, 32.36084%, 23.039246%)" offset="0.273437"/><stop stop-opacity="1" stop-color="rgb(100%, 32.611084%, 23.112488%)" offset="0.28125"/><stop stop-opacity="1" stop-color="rgb(100%, 32.859802%, 23.18573%)" offset="0.289062"/><stop stop-opacity="1" stop-color="rgb(100%, 33.110046%, 23.257446%)" offset="0.296875"/><stop stop-opacity="1" stop-color="rgb(100%, 33.358765%, 23.330688%)" offset="0.304688"/><stop stop-opacity="1" stop-color="rgb(100%, 33.609009%, 23.403931%)" offset="0.3125"/><stop stop-opacity="1" stop-color="rgb(100%, 33.859253%, 23.475647%)" offset="0.320312"/><stop stop-opacity="1" stop-color="rgb(100%, 34.107971%, 23.548889%)" offset="0.322968"/><stop stop-opacity="1" stop-color="rgb(100%, 34.233093%, 23.58551%)" offset="0.328125"/><stop stop-opacity="1" stop-color="rgb(100%, 34.358215%, 23.622131%)" offset="0.335937"/><stop stop-opacity="1" stop-color="rgb(100%, 34.606934%, 23.695374%)" offset="0.34375"/><stop stop-opacity="1" stop-color="rgb(100%, 34.857178%, 23.76709%)" offset="0.351562"/><stop stop-opacity="1" stop-color="rgb(100%, 35.105896%, 23.840332%)" offset="0.359375"/><stop stop-opacity="1" stop-color="rgb(100%, 35.35614%, 23.913574%)" offset="0.367187"/><stop stop-opacity="1" stop-color="rgb(100%, 35.604858%, 23.985291%)" offset="0.375"/><stop stop-opacity="1" stop-color="rgb(100%, 35.855103%, 24.058533%)" offset="0.382812"/><stop stop-opacity="1" stop-color="rgb(100%, 36.103821%, 24.131775%)" offset="0.390625"/><stop stop-opacity="1" stop-color="rgb(100%, 36.354065%, 24.205017%)" offset="0.398438"/><stop stop-opacity="1" stop-color="rgb(100%, 36.602783%, 24.276733%)" offset="0.40625"/><stop stop-opacity="1" stop-color="rgb(100%, 36.853027%, 24.349976%)" offset="0.414062"/><stop stop-opacity="1" stop-color="rgb(100%, 37.103271%, 24.423218%)" offset="0.421875"/><stop stop-opacity="1" stop-color="rgb(100%, 37.35199%, 24.49646%)" offset="0.429687"/><stop stop-opacity="1" stop-color="rgb(100%, 37.602234%, 24.568176%)" offset="0.4375"/><stop stop-opacity="1" stop-color="rgb(100%, 37.850952%, 24.641418%)" offset="0.445312"/><stop stop-opacity="1" stop-color="rgb(100%, 38.101196%, 24.714661%)" offset="0.453125"/><stop stop-opacity="1" stop-color="rgb(100%, 38.349915%, 24.786377%)" offset="0.460937"/><stop stop-opacity="1" stop-color="rgb(100%, 38.600159%, 24.859619%)" offset="0.46875"/><stop stop-opacity="1" stop-color="rgb(100%, 38.848877%, 24.932861%)" offset="0.476563"/><stop stop-opacity="1" stop-color="rgb(100%, 39.099121%, 25.006104%)" offset="0.484375"/><stop stop-opacity="1" stop-color="rgb(100%, 39.347839%, 25.07782%)" offset="0.492188"/><stop stop-opacity="1" stop-color="rgb(100%, 39.598083%, 25.151062%)" offset="0.5"/><stop stop-opacity="1" stop-color="rgb(100%, 39.848328%, 25.224304%)" offset="0.507812"/><stop stop-opacity="1" stop-color="rgb(100%, 40.097046%, 25.296021%)" offset="0.515625"/><stop stop-opacity="1" stop-color="rgb(100%, 40.34729%, 25.369263%)" offset="0.523438"/><stop stop-opacity="1" stop-color="rgb(100%, 40.596008%, 25.442505%)" offset="0.53125"/><stop stop-opacity="1" stop-color="rgb(100%, 40.846252%, 25.515747%)" offset="0.539062"/><stop stop-opacity="1" stop-color="rgb(100%, 41.094971%, 25.587463%)" offset="0.546875"/><stop stop-opacity="1" stop-color="rgb(100%, 41.345215%, 25.660706%)" offset="0.554687"/><stop stop-opacity="1" stop-color="rgb(100%, 41.593933%, 25.733948%)" offset="0.5625"/><stop stop-opacity="1" stop-color="rgb(100%, 41.844177%, 25.805664%)" offset="0.570313"/><stop stop-opacity="1" stop-color="rgb(100%, 42.092896%, 25.878906%)" offset="0.578125"/><stop stop-opacity="1" stop-color="rgb(100%, 42.34314%, 25.952148%)" offset="0.585938"/><stop stop-opacity="1" stop-color="rgb(100%, 42.593384%, 26.025391%)" offset="0.59375"/><stop stop-opacity="1" stop-color="rgb(100%, 42.842102%, 26.097107%)" offset="0.601562"/><stop stop-opacity="1" stop-color="rgb(100%, 43.092346%, 26.170349%)" offset="0.609375"/><stop stop-opacity="1" stop-color="rgb(100%, 43.341064%, 26.243591%)" offset="0.617188"/><stop stop-opacity="1" stop-color="rgb(100%, 43.591309%, 26.315308%)" offset="0.625"/><stop stop-opacity="1" stop-color="rgb(100%, 43.840027%, 26.38855%)" offset="0.632812"/><stop stop-opacity="1" stop-color="rgb(100%, 44.090271%, 26.461792%)" offset="0.640625"/><stop stop-opacity="1" stop-color="rgb(100%, 44.338989%, 26.535034%)" offset="0.648437"/><stop stop-opacity="1" stop-color="rgb(100%, 44.589233%, 26.60675%)" offset="0.65625"/><stop stop-opacity="1" stop-color="rgb(100%, 44.837952%, 26.679993%)" offset="0.664063"/><stop stop-opacity="1" stop-color="rgb(100%, 45.088196%, 26.753235%)" offset="0.671875"/><stop stop-opacity="1" stop-color="rgb(100%, 45.33844%, 26.826477%)" offset="0.677032"/><stop stop-opacity="1" stop-color="rgb(100%, 45.463562%, 26.863098%)" offset="0.679688"/><stop stop-opacity="1" stop-color="rgb(100%, 45.587158%, 26.898193%)" offset="0.6875"/><stop stop-opacity="1" stop-color="rgb(100%, 45.837402%, 26.971436%)" offset="0.695312"/><stop stop-opacity="1" stop-color="rgb(100%, 46.086121%, 27.044678%)" offset="0.703125"/><stop stop-opacity="1" stop-color="rgb(100%, 46.336365%, 27.116394%)" offset="0.710938"/><stop stop-opacity="1" stop-color="rgb(100%, 46.585083%, 27.189636%)" offset="0.71875"/><stop stop-opacity="1" stop-color="rgb(100%, 46.835327%, 27.262878%)" offset="0.726562"/><stop stop-opacity="1" stop-color="rgb(100%, 47.084045%, 27.336121%)" offset="0.734375"/><stop stop-opacity="1" stop-color="rgb(100%, 47.33429%, 27.407837%)" offset="0.742187"/><stop stop-opacity="1" stop-color="rgb(100%, 47.583008%, 27.481079%)" offset="0.75"/><stop stop-opacity="1" stop-color="rgb(100%, 47.833252%, 27.554321%)" offset="0.757812"/><stop stop-opacity="1" stop-color="rgb(100%, 48.08197%, 27.626038%)" offset="0.765625"/><stop stop-opacity="1" stop-color="rgb(100%, 48.332214%, 27.69928%)" offset="0.773438"/><stop stop-opacity="1" stop-color="rgb(100%, 48.582458%, 27.772522%)" offset="0.78125"/><stop stop-opacity="1" stop-color="rgb(100%, 48.831177%, 27.845764%)" offset="0.789062"/><stop stop-opacity="1" stop-color="rgb(100%, 49.081421%, 27.91748%)" offset="0.796875"/><stop stop-opacity="1" stop-color="rgb(100%, 49.330139%, 27.990723%)" offset="0.804688"/><stop stop-opacity="1" stop-color="rgb(100%, 49.580383%, 28.063965%)" offset="0.8125"/><stop stop-opacity="1" stop-color="rgb(100%, 49.829102%, 28.135681%)" offset="0.820312"/><stop stop-opacity="1" stop-color="rgb(100%, 50.079346%, 28.208923%)" offset="0.828125"/><stop stop-opacity="1" stop-color="rgb(100%, 50.328064%, 28.282166%)" offset="0.835937"/><stop stop-opacity="1" stop-color="rgb(100%, 50.578308%, 28.355408%)" offset="0.84375"/><stop stop-opacity="1" stop-color="rgb(100%, 50.827026%, 28.427124%)" offset="0.851562"/><stop stop-opacity="1" stop-color="rgb(100%, 51.077271%, 28.500366%)" offset="0.859375"/><stop stop-opacity="1" stop-color="rgb(100%, 51.327515%, 28.573608%)" offset="0.867188"/><stop stop-opacity="1" stop-color="rgb(100%, 51.576233%, 28.645325%)" offset="0.875"/><stop stop-opacity="1" stop-color="rgb(100%, 51.826477%, 28.718567%)" offset="0.882812"/><stop stop-opacity="1" stop-color="rgb(100%, 52.075195%, 28.791809%)" offset="0.890625"/><stop stop-opacity="1" stop-color="rgb(100%, 52.325439%, 28.865051%)" offset="0.898438"/><stop stop-opacity="1" stop-color="rgb(100%, 52.574158%, 28.936768%)" offset="0.90625"/><stop stop-opacity="1" stop-color="rgb(100%, 52.824402%, 29.01001%)" offset="0.914062"/><stop stop-opacity="1" stop-color="rgb(100%, 53.07312%, 29.083252%)" offset="0.921875"/><stop stop-opacity="1" stop-color="rgb(100%, 53.323364%, 29.154968%)" offset="0.929687"/><stop stop-opacity="1" stop-color="rgb(100%, 53.572083%, 29.22821%)" offset="0.9375"/><stop stop-opacity="1" stop-color="rgb(100%, 53.822327%, 29.301453%)" offset="0.945312"/><stop stop-opacity="1" stop-color="rgb(100%, 54.072571%, 29.374695%)" offset="0.953125"/><stop stop-opacity="1" stop-color="rgb(100%, 54.321289%, 29.446411%)" offset="0.960938"/><stop stop-opacity="1" stop-color="rgb(100%, 54.571533%, 29.519653%)" offset="0.96875"/><stop stop-opacity="1" stop-color="rgb(100%, 54.820251%, 29.592896%)" offset="0.976562"/><stop stop-opacity="1" stop-color="rgb(100%, 55.070496%, 29.666138%)" offset="0.984375"/><stop stop-opacity="1" stop-color="rgb(100%, 55.319214%, 29.737854%)" offset="0.992188"/><stop stop-opacity="1" stop-color="rgb(100%, 55.569458%, 29.811096%)" offset="1"/></linearGradient><clipPath id="9e7610c31a"><path d="M 77 12.742188 L 88 12.742188 L 88 15 L 77 15 Z M 77 12.742188 " clip-rule="nonzero"/></clipPath><clipPath id="9fa62fcef8"><path d="M 87.332031 13.6875 C 87.332031 13.167969 86.910156 12.742188 86.386719 12.742188 L 77.992188 12.742188 C 77.472656 12.742188 77.046875 13.164062 77.046875 13.6875 C 77.046875 14.207031 77.46875 14.632812 77.992188 14.632812 L 86.386719 14.632812 C 86.910156 14.628906 87.332031 14.207031 87.332031 13.6875 Z M 87.332031 13.6875 " clip-rule="nonzero"/></clipPath><linearGradient x1="109.910462" gradientTransform="matrix(0.254518, 0, 0, 0.254518, 56.581799, 12.742975)" y1="-8.386242" x2="91.315756" gradientUnits="userSpaceOnUse" y2="15.803335" id="087862988b"><stop stop-opacity="1" stop-color="rgb(100%, 24.47052%, 20.736694%)" offset="0"/><stop stop-opacity="1" stop-color="rgb(100%, 24.665833%, 20.793152%)" offset="0.0625"/><stop stop-opacity="1" stop-color="rgb(100%, 24.958801%, 20.880127%)" offset="0.09375"/><stop stop-opacity="1" stop-color="rgb(100%, 25.15564%, 20.936584%)" offset="0.125"/><stop stop-opacity="1" stop-color="rgb(100%, 25.448608%, 21.022034%)" offset="0.1875"/><stop stop-opacity="1" stop-color="rgb(100%, 25.741577%, 21.107483%)" offset="0.19281"/><stop stop-opacity="1" stop-color="rgb(100%, 25.840759%, 21.136475%)" offset="0.21875"/><stop stop-opacity="1" stop-color="rgb(100%, 25.938416%, 21.165466%)" offset="0.25"/><stop stop-opacity="1" stop-color="rgb(100%, 26.231384%, 21.250916%)" offset="0.3125"/><stop stop-opacity="1" stop-color="rgb(100%, 26.524353%, 21.336365%)" offset="0.34375"/><stop stop-opacity="1" stop-color="rgb(100%, 26.719666%, 21.392822%)" offset="0.375"/><stop stop-opacity="1" stop-color="rgb(100%, 27.01416%, 21.478271%)" offset="0.4375"/><stop stop-opacity="1" stop-color="rgb(100%, 27.307129%, 21.565247%)" offset="0.46875"/><stop stop-opacity="1" stop-color="rgb(100%, 27.502441%, 21.621704%)" offset="0.5"/><stop stop-opacity="1" stop-color="rgb(100%, 27.796936%, 21.707153%)" offset="0.5625"/><stop stop-opacity="1" stop-color="rgb(100%, 28.089905%, 21.792603%)" offset="0.59375"/><stop stop-opacity="1" stop-color="rgb(100%, 28.285217%, 21.850586%)" offset="0.625"/><stop stop-opacity="1" stop-color="rgb(100%, 28.579712%, 21.936035%)" offset="0.6875"/><stop stop-opacity="1" stop-color="rgb(100%, 28.970337%, 22.04895%)" offset="0.75"/><stop stop-opacity="1" stop-color="rgb(100%, 29.263306%, 22.135925%)" offset="0.78125"/><stop stop-opacity="1" stop-color="rgb(100%, 29.460144%, 22.192383%)" offset="0.80719"/><stop stop-opacity="1" stop-color="rgb(100%, 29.5578%, 22.221375%)" offset="0.8125"/><stop stop-opacity="1" stop-color="rgb(100%, 29.753113%, 22.277832%)" offset="0.875"/><stop stop-opacity="1" stop-color="rgb(100%, 30.046082%, 22.363281%)" offset="0.90625"/><stop stop-opacity="1" stop-color="rgb(100%, 30.24292%, 22.421265%)" offset="0.9375"/><stop stop-opacity="1" stop-color="rgb(100%, 30.535889%, 22.506714%)" offset="1"/></linearGradient><clipPath id="a61454281c"><path d="M 58 26 L 66 26 L 66 49.492188 L 58 49.492188 Z M 58 26 " clip-rule="nonzero"/></clipPath><clipPath id="69a3f2da09"><path d="M 58.929688 30.84375 C 58.601562 30.84375 58.3125 30.820312 58.074219 30.789062 L 58.074219 45.566406 C 58.074219 47.664062 59.785156 49.375 61.882812 49.375 C 63.984375 49.375 65.691406 47.664062 65.691406 45.566406 L 65.691406 26.96875 C 64.964844 27.492188 63.824219 28.355469 62.722656 29.417969 C 61.507812 30.585938 60.019531 30.84375 58.929688 30.84375 Z M 58.949219 34.242188 C 58.949219 33.890625 59.234375 33.605469 59.585938 33.605469 C 59.9375 33.605469 60.222656 33.890625 60.222656 34.242188 C 60.222656 34.59375 59.9375 34.878906 59.585938 34.878906 C 59.234375 34.878906 58.949219 34.59375 58.949219 34.242188 Z M 59.824219 44.867188 C 59.472656 44.867188 59.1875 44.582031 59.1875 44.230469 C 59.1875 43.878906 59.472656 43.59375 59.824219 43.59375 C 60.175781 43.59375 60.460938 43.878906 60.460938 44.230469 C 60.460938 44.582031 60.175781 44.867188 59.824219 44.867188 Z M 60.699219 40.015625 C 60.347656 40.015625 60.0625 39.730469 60.0625 39.378906 C 60.0625 39.027344 60.347656 38.742188 60.699219 38.742188 C 61.050781 38.742188 61.335938 39.027344 61.335938 39.378906 C 61.335938 39.730469 61.050781 40.015625 60.699219 40.015625 Z M 63.007812 47.394531 C 62.65625 47.394531 62.371094 47.109375 62.371094 46.757812 C 62.371094 46.40625 62.65625 46.121094 63.007812 46.121094 C 63.359375 46.121094 63.644531 46.40625 63.644531 46.757812 C 63.644531 47.109375 63.359375 47.394531 63.007812 47.394531 Z M 63.800781 42.332031 C 63.453125 42.332031 63.167969 42.046875 63.167969 41.695312 C 63.167969 41.34375 63.453125 41.058594 63.800781 41.058594 C 64.152344 41.058594 64.4375 41.34375 64.4375 41.695312 C 64.441406 42.046875 64.15625 42.332031 63.800781 42.332031 Z M 64.441406 36.628906 C 64.441406 36.980469 64.15625 37.265625 63.804688 37.265625 C 63.453125 37.265625 63.167969 36.980469 63.167969 36.628906 C 63.167969 36.277344 63.453125 35.992188 63.804688 35.992188 C 64.15625 35.992188 64.441406 36.277344 64.441406 36.628906 Z M 63.304688 31.414062 C 63.65625 31.414062 63.941406 31.699219 63.941406 32.050781 C 63.941406 32.402344 63.65625 32.6875 63.304688 32.6875 C 62.953125 32.6875 62.667969 32.402344 62.667969 32.050781 C 62.667969 31.699219 62.953125 31.414062 63.304688 31.414062 Z M 63.304688 31.414062 " clip-rule="nonzero"/></clipPath><linearGradient x1="48.892898" gradientTransform="matrix(0.254518, 0, 0, 0.254518, 56.581799, 12.742975)" y1="65.97239" x2="-4.750609" gradientUnits="userSpaceOnUse" y2="135.755808" id="09fe1c2183"><stop stop-opacity="1" stop-color="rgb(100%, 44.200134%, 26.493835%)" offset="0"/><stop stop-opacity="1" stop-color="rgb(100%, 44.340515%, 26.535034%)" offset="0.015625"/><stop stop-opacity="1" stop-color="rgb(100%, 44.622803%, 26.617432%)" offset="0.03125"/><stop stop-opacity="1" stop-color="rgb(100%, 44.90509%, 26.699829%)" offset="0.046875"/><stop stop-opacity="1" stop-color="rgb(100%, 45.187378%, 26.782227%)" offset="0.0625"/><stop stop-opacity="1" stop-color="rgb(100%, 45.469666%, 26.864624%)" offset="0.078125"/><stop stop-opacity="1" stop-color="rgb(100%, 45.751953%, 26.947021%)" offset="0.09375"/><stop stop-opacity="1" stop-color="rgb(100%, 46.032715%, 27.029419%)" offset="0.109375"/><stop stop-opacity="1" stop-color="rgb(100%, 46.315002%, 27.111816%)" offset="0.125"/><stop stop-opacity="1" stop-color="rgb(100%, 46.59729%, 27.194214%)" offset="0.140625"/><stop stop-opacity="1" stop-color="rgb(100%, 46.879578%, 27.276611%)" offset="0.15625"/><stop stop-opacity="1" stop-color="rgb(100%, 47.161865%, 27.359009%)" offset="0.171875"/><stop stop-opacity="1" stop-color="rgb(100%, 47.444153%, 27.441406%)" offset="0.1875"/><stop stop-opacity="1" stop-color="rgb(100%, 47.72644%, 27.523804%)" offset="0.203125"/><stop stop-opacity="1" stop-color="rgb(100%, 48.008728%, 27.606201%)" offset="0.207169"/><stop stop-opacity="1" stop-color="rgb(100%, 48.150635%, 27.6474%)" offset="0.21875"/><stop stop-opacity="1" stop-color="rgb(100%, 48.291016%, 27.687073%)" offset="0.234375"/><stop stop-opacity="1" stop-color="rgb(100%, 48.573303%, 27.76947%)" offset="0.25"/><stop stop-opacity="1" stop-color="rgb(100%, 48.855591%, 27.851868%)" offset="0.265625"/><stop stop-opacity="1" stop-color="rgb(100%, 49.137878%, 27.934265%)" offset="0.28125"/><stop stop-opacity="1" stop-color="rgb(100%, 49.420166%, 28.016663%)" offset="0.296875"/><stop stop-opacity="1" stop-color="rgb(100%, 49.702454%, 28.09906%)" offset="0.3125"/><stop stop-opacity="1" stop-color="rgb(100%, 49.984741%, 28.181458%)" offset="0.328125"/><stop stop-opacity="1" stop-color="rgb(100%, 50.267029%, 28.263855%)" offset="0.34375"/><stop stop-opacity="1" stop-color="rgb(100%, 50.549316%, 28.346252%)" offset="0.359375"/><stop stop-opacity="1" stop-color="rgb(100%, 50.831604%, 28.42865%)" offset="0.375"/><stop stop-opacity="1" stop-color="rgb(100%, 51.113892%, 28.511047%)" offset="0.390625"/><stop stop-opacity="1" stop-color="rgb(100%, 51.396179%, 28.593445%)" offset="0.40625"/><stop stop-opacity="1" stop-color="rgb(100%, 51.678467%, 28.675842%)" offset="0.421875"/><stop stop-opacity="1" stop-color="rgb(100%, 51.960754%, 28.75824%)" offset="0.4375"/><stop stop-opacity="1" stop-color="rgb(100%, 52.243042%, 28.840637%)" offset="0.453125"/><stop stop-opacity="1" stop-color="rgb(100%, 52.52533%, 28.923035%)" offset="0.46875"/><stop stop-opacity="1" stop-color="rgb(100%, 52.807617%, 29.005432%)" offset="0.484375"/><stop stop-opacity="1" stop-color="rgb(100%, 53.089905%, 29.08783%)" offset="0.5"/><stop stop-opacity="1" stop-color="rgb(100%, 53.370667%, 29.170227%)" offset="0.515625"/><stop stop-opacity="1" stop-color="rgb(100%, 53.652954%, 29.252625%)" offset="0.53125"/><stop stop-opacity="1" stop-color="rgb(100%, 53.935242%, 29.335022%)" offset="0.546875"/><stop stop-opacity="1" stop-color="rgb(100%, 54.217529%, 29.417419%)" offset="0.5625"/><stop stop-opacity="1" stop-color="rgb(100%, 54.499817%, 29.499817%)" offset="0.578125"/><stop stop-opacity="1" stop-color="rgb(100%, 54.782104%, 29.582214%)" offset="0.59375"/><stop stop-opacity="1" stop-color="rgb(100%, 55.064392%, 29.664612%)" offset="0.609375"/><stop stop-opacity="1" stop-color="rgb(100%, 55.34668%, 29.747009%)" offset="0.625"/><stop stop-opacity="1" stop-color="rgb(100%, 55.628967%, 29.829407%)" offset="0.640625"/><stop stop-opacity="1" stop-color="rgb(100%, 55.911255%, 29.911804%)" offset="0.65625"/><stop stop-opacity="1" stop-color="rgb(100%, 56.193542%, 29.994202%)" offset="0.671875"/><stop stop-opacity="1" stop-color="rgb(100%, 56.47583%, 30.076599%)" offset="0.6875"/><stop stop-opacity="1" stop-color="rgb(100%, 56.758118%, 30.157471%)" offset="0.75"/><stop stop-opacity="1" stop-color="rgb(100%, 56.898499%, 30.198669%)" offset="0.792831"/><stop stop-opacity="1" stop-color="rgb(100%, 56.898499%, 30.198669%)" offset="1"/></linearGradient></defs><g clip-path="url(#96d86fbc3c)"><g clip-path="url(#0c6d6a9c83)"><path fill="url(#7197f6570c)" d="M 56.582031 12.742188 L 56.582031 14.988281 L 67.183594 14.988281 L 67.183594 12.742188 Z M 56.582031 12.742188 " fill-rule="nonzero"/></g></g><g clip-path="url(#e6220d5469)"><g clip-path="url(#007c058e07)"><path fill="url(#31db9e2b13)" d="M 58.074219 16.007812 L 58.074219 29.964844 L 65.691406 29.964844 L 65.691406 16.007812 Z M 58.074219 16.007812 " fill-rule="nonzero"/></g></g><g clip-path="url(#076450d2f9)"><g clip-path="url(#478c6539bf)"><path fill="url(#5abed5047f)" d="M 71.578125 15.648438 L 71.578125 49.476562 L 92.574219 49.476562 L 92.574219 15.648438 Z M 71.578125 15.648438 " fill-rule="nonzero"/></g></g><g clip-path="url(#9e7610c31a)"><g clip-path="url(#9fa62fcef8)"><path fill="url(#087862988b)" d="M 77.046875 12.742188 L 77.046875 14.632812 L 87.332031 14.632812 L 87.332031 12.742188 Z M 77.046875 12.742188 " fill-rule="nonzero"/></g></g><g clip-path="url(#a61454281c)"><g clip-path="url(#69a3f2da09)"><path fill="url(#09fe1c2183)" d="M 58.074219 26.96875 L 58.074219 49.375 L 65.691406 49.375 L 65.691406 26.96875 Z M 58.074219 26.96875 " fill-rule="nonzero"/></g></g><g fill="#ff914d" fill-opacity="1"><g transform="translate(19.417008, 65.424853)"><g><path d="M 3.171875 -0.671875 L 5.78125 -0.671875 C 6 -0.671875 6.179688 -0.703125 6.328125 -0.765625 C 6.484375 -0.828125 6.613281 -0.90625 6.71875 -1 C 6.820312 -1.101562 6.898438 -1.222656 6.953125 -1.359375 C 7.015625 -1.492188 7.054688 -1.632812 7.078125 -1.78125 L 7.171875 -2.375 L 7.875 -2.375 L 7.78125 0 L 0.515625 0 L 0.515625 -0.5625 L 0.6875 -0.5625 C 0.832031 -0.5625 0.972656 -0.570312 1.109375 -0.59375 C 1.242188 -0.613281 1.363281 -0.65625 1.46875 -0.71875 C 1.570312 -0.78125 1.648438 -0.867188 1.703125 -0.984375 C 1.765625 -1.109375 1.796875 -1.273438 1.796875 -1.484375 L 1.796875 -8.140625 C 1.796875 -8.347656 1.765625 -8.515625 1.703125 -8.640625 C 1.648438 -8.773438 1.570312 -8.875 1.46875 -8.9375 C 1.375 -9.007812 1.257812 -9.054688 1.125 -9.078125 C 0.988281 -9.097656 0.84375 -9.109375 0.6875 -9.109375 L 0.515625 -9.109375 L 0.515625 -9.6875 L 7.34375 -9.6875 L 7.421875 -7.3125 L 6.71875 -7.3125 L 6.65625 -7.890625 C 6.632812 -8.046875 6.597656 -8.1875 6.546875 -8.3125 C 6.492188 -8.445312 6.421875 -8.566406 6.328125 -8.671875 C 6.234375 -8.773438 6.113281 -8.851562 5.96875 -8.90625 C 5.820312 -8.96875 5.648438 -9 5.453125 -9 L 3.171875 -9 L 3.171875 -5.390625 L 6.4375 -5.390625 L 6.4375 -4.734375 L 3.171875 -4.734375 Z M 3.171875 -0.671875 "/></g></g></g><g fill="#ff914d" fill-opacity="1"><g transform="translate(29.47, 65.424853)"><g><path d="M 6.3125 -8.71875 C 6.3125 -8.800781 6.289062 -8.867188 6.25 -8.921875 C 6.21875 -8.972656 6.171875 -9.007812 6.109375 -9.03125 C 6.046875 -9.0625 5.96875 -9.082031 5.875 -9.09375 C 5.789062 -9.101562 5.695312 -9.109375 5.59375 -9.109375 L 5.546875 -9.109375 L 5.546875 -9.6875 L 8.515625 -9.6875 L 8.515625 -9.109375 L 8.390625 -9.109375 C 8.265625 -9.109375 8.144531 -9.09375 8.03125 -9.0625 C 7.925781 -9.03125 7.820312 -8.972656 7.71875 -8.890625 C 7.613281 -8.816406 7.507812 -8.71875 7.40625 -8.59375 C 7.300781 -8.476562 7.179688 -8.328125 7.046875 -8.140625 L 5.09375 -5.296875 L 7.578125 -1.296875 C 7.773438 -1.023438 7.960938 -0.832031 8.140625 -0.71875 C 8.316406 -0.613281 8.492188 -0.5625 8.671875 -0.5625 L 8.84375 -0.5625 L 8.84375 0 L 5.171875 0 L 5.171875 -0.5625 L 5.25 -0.5625 C 5.789062 -0.5625 6.0625 -0.710938 6.0625 -1.015625 C 6.0625 -1.066406 6.054688 -1.113281 6.046875 -1.15625 C 6.035156 -1.207031 6.015625 -1.265625 5.984375 -1.328125 C 5.953125 -1.398438 5.90625 -1.484375 5.84375 -1.578125 C 5.78125 -1.679688 5.703125 -1.804688 5.609375 -1.953125 L 4.265625 -4.109375 L 2.765625 -1.890625 C 2.722656 -1.828125 2.679688 -1.757812 2.640625 -1.6875 C 2.609375 -1.613281 2.570312 -1.535156 2.53125 -1.453125 C 2.5 -1.378906 2.472656 -1.300781 2.453125 -1.21875 C 2.429688 -1.132812 2.421875 -1.0625 2.421875 -1 C 2.421875 -0.84375 2.488281 -0.726562 2.625 -0.65625 C 2.769531 -0.59375 2.992188 -0.5625 3.296875 -0.5625 L 3.34375 -0.5625 L 3.34375 0 L 0.109375 0 L 0.109375 -0.5625 L 0.1875 -0.5625 C 0.351562 -0.5625 0.492188 -0.578125 0.609375 -0.609375 C 0.734375 -0.648438 0.847656 -0.707031 0.953125 -0.78125 C 1.054688 -0.851562 1.160156 -0.945312 1.265625 -1.0625 C 1.367188 -1.1875 1.484375 -1.335938 1.609375 -1.515625 L 3.875 -4.765625 L 1.625 -8.390625 C 1.46875 -8.648438 1.285156 -8.832031 1.078125 -8.9375 C 0.867188 -9.050781 0.664062 -9.109375 0.46875 -9.109375 L 0.28125 -9.109375 L 0.28125 -9.6875 L 3.953125 -9.6875 L 3.953125 -9.109375 L 3.921875 -9.109375 C 3.765625 -9.109375 3.632812 -9.097656 3.53125 -9.078125 C 3.4375 -9.054688 3.359375 -9.03125 3.296875 -9 C 3.242188 -8.96875 3.203125 -8.925781 3.171875 -8.875 C 3.148438 -8.820312 3.140625 -8.769531 3.140625 -8.71875 C 3.140625 -8.675781 3.144531 -8.628906 3.15625 -8.578125 C 3.164062 -8.535156 3.179688 -8.484375 3.203125 -8.421875 C 3.222656 -8.367188 3.253906 -8.300781 3.296875 -8.21875 C 3.335938 -8.132812 3.394531 -8.035156 3.46875 -7.921875 L 4.6875 -5.9375 L 5.984375 -7.890625 C 6.078125 -8.046875 6.15625 -8.191406 6.21875 -8.328125 C 6.28125 -8.460938 6.3125 -8.59375 6.3125 -8.71875 Z M 6.3125 -8.71875 "/></g></g></g><g fill="#ff914d" fill-opacity="1"><g transform="translate(40.026399, 65.424853)"><g><path d="M 0.515625 0 L 0.515625 -0.5625 L 0.6875 -0.5625 C 0.84375 -0.5625 0.988281 -0.570312 1.125 -0.59375 C 1.257812 -0.625 1.375 -0.671875 1.46875 -0.734375 C 1.570312 -0.804688 1.648438 -0.90625 1.703125 -1.03125 C 1.765625 -1.15625 1.796875 -1.328125 1.796875 -1.546875 L 1.796875 -8.1875 C 1.796875 -8.382812 1.765625 -8.546875 1.703125 -8.671875 C 1.648438 -8.796875 1.570312 -8.890625 1.46875 -8.953125 C 1.363281 -9.015625 1.242188 -9.054688 1.109375 -9.078125 C 0.972656 -9.097656 0.832031 -9.109375 0.6875 -9.109375 L 0.515625 -9.109375 L 0.515625 -9.6875 L 4.328125 -9.6875 C 4.890625 -9.6875 5.378906 -9.617188 5.796875 -9.484375 C 6.222656 -9.359375 6.570312 -9.171875 6.84375 -8.921875 C 7.125 -8.679688 7.328125 -8.382812 7.453125 -8.03125 C 7.585938 -7.6875 7.65625 -7.289062 7.65625 -6.84375 C 7.65625 -6.445312 7.59375 -6.0625 7.46875 -5.6875 C 7.34375 -5.3125 7.132812 -4.984375 6.84375 -4.703125 C 6.5625 -4.421875 6.1875 -4.191406 5.71875 -4.015625 C 5.257812 -3.847656 4.695312 -3.765625 4.03125 -3.765625 L 3.171875 -3.765625 L 3.171875 -1.484375 C 3.171875 -1.273438 3.195312 -1.109375 3.25 -0.984375 C 3.3125 -0.867188 3.394531 -0.78125 3.5 -0.71875 C 3.601562 -0.65625 3.722656 -0.613281 3.859375 -0.59375 C 3.992188 -0.570312 4.132812 -0.5625 4.28125 -0.5625 L 4.734375 -0.5625 L 4.734375 0 Z M 3.171875 -4.40625 L 3.890625 -4.40625 C 4.304688 -4.40625 4.660156 -4.445312 4.953125 -4.53125 C 5.242188 -4.625 5.476562 -4.765625 5.65625 -4.953125 C 5.84375 -5.148438 5.976562 -5.398438 6.0625 -5.703125 C 6.15625 -6.003906 6.203125 -6.367188 6.203125 -6.796875 C 6.203125 -7.171875 6.160156 -7.5 6.078125 -7.78125 C 6.003906 -8.0625 5.882812 -8.296875 5.71875 -8.484375 C 5.550781 -8.671875 5.332031 -8.804688 5.0625 -8.890625 C 4.800781 -8.984375 4.476562 -9.03125 4.09375 -9.03125 L 3.171875 -9.03125 Z M 3.171875 -4.40625 "/></g></g></g><g fill="#ff914d" fill-opacity="1"><g transform="translate(49.821063, 65.424853)"><g><path d="M 3.171875 -0.671875 L 5.78125 -0.671875 C 6 -0.671875 6.179688 -0.703125 6.328125 -0.765625 C 6.484375 -0.828125 6.613281 -0.90625 6.71875 -1 C 6.820312 -1.101562 6.898438 -1.222656 6.953125 -1.359375 C 7.015625 -1.492188 7.054688 -1.632812 7.078125 -1.78125 L 7.171875 -2.375 L 7.875 -2.375 L 7.78125 0 L 0.515625 0 L 0.515625 -0.5625 L 0.6875 -0.5625 C 0.832031 -0.5625 0.972656 -0.570312 1.109375 -0.59375 C 1.242188 -0.613281 1.363281 -0.65625 1.46875 -0.71875 C 1.570312 -0.78125 1.648438 -0.867188 1.703125 -0.984375 C 1.765625 -1.109375 1.796875 -1.273438 1.796875 -1.484375 L 1.796875 -8.140625 C 1.796875 -8.347656 1.765625 -8.515625 1.703125 -8.640625 C 1.648438 -8.773438 1.570312 -8.875 1.46875 -8.9375 C 1.375 -9.007812 1.257812 -9.054688 1.125 -9.078125 C 0.988281 -9.097656 0.84375 -9.109375 0.6875 -9.109375 L 0.515625 -9.109375 L 0.515625 -9.6875 L 7.34375 -9.6875 L 7.421875 -7.3125 L 6.71875 -7.3125 L 6.65625 -7.890625 C 6.632812 -8.046875 6.597656 -8.1875 6.546875 -8.3125 C 6.492188 -8.445312 6.421875 -8.566406 6.328125 -8.671875 C 6.234375 -8.773438 6.113281 -8.851562 5.96875 -8.90625 C 5.820312 -8.96875 5.648438 -9 5.453125 -9 L 3.171875 -9 L 3.171875 -5.390625 L 6.4375 -5.390625 L 6.4375 -4.734375 L 3.171875 -4.734375 Z M 3.171875 -0.671875 "/></g></g></g><g fill="#ff914d" fill-opacity="1"><g transform="translate(59.874056, 65.424853)"><g><path d="M 7.515625 -1.65625 C 7.742188 -1.289062 7.96875 -1.015625 8.1875 -0.828125 C 8.40625 -0.648438 8.65625 -0.5625 8.9375 -0.5625 L 8.984375 -0.5625 L 8.984375 0 L 8.78125 0 C 8.363281 0 8.019531 -0.015625 7.75 -0.046875 C 7.476562 -0.078125 7.242188 -0.132812 7.046875 -0.21875 C 6.859375 -0.3125 6.695312 -0.4375 6.5625 -0.59375 C 6.425781 -0.75 6.28125 -0.957031 6.125 -1.21875 L 4.296875 -4.265625 L 3.171875 -4.265625 L 3.171875 -1.484375 C 3.171875 -1.273438 3.195312 -1.109375 3.25 -0.984375 C 3.3125 -0.867188 3.394531 -0.78125 3.5 -0.71875 C 3.601562 -0.65625 3.722656 -0.613281 3.859375 -0.59375 C 3.992188 -0.570312 4.132812 -0.5625 4.28125 -0.5625 L 4.46875 -0.5625 L 4.46875 0 L 0.515625 0 L 0.515625 -0.5625 L 0.6875 -0.5625 C 0.832031 -0.5625 0.972656 -0.570312 1.109375 -0.59375 C 1.242188 -0.613281 1.363281 -0.65625 1.46875 -0.71875 C 1.570312 -0.78125 1.648438 -0.867188 1.703125 -0.984375 C 1.765625 -1.109375 1.796875 -1.273438 1.796875 -1.484375 L 1.796875 -8.1875 C 1.796875 -8.382812 1.765625 -8.546875 1.703125 -8.671875 C 1.648438 -8.796875 1.570312 -8.890625 1.46875 -8.953125 C 1.363281 -9.015625 1.242188 -9.054688 1.109375 -9.078125 C 0.972656 -9.097656 0.832031 -9.109375 0.6875 -9.109375 L 0.515625 -9.109375 L 0.515625 -9.6875 L 4.171875 -9.6875 C 5.335938 -9.6875 6.207031 -9.46875 6.78125 -9.03125 C 7.363281 -8.59375 7.65625 -7.9375 7.65625 -7.0625 C 7.65625 -6.695312 7.59375 -6.378906 7.46875 -6.109375 C 7.351562 -5.835938 7.203125 -5.601562 7.015625 -5.40625 C 6.828125 -5.207031 6.613281 -5.039062 6.375 -4.90625 C 6.132812 -4.78125 5.894531 -4.675781 5.65625 -4.59375 Z M 3.171875 -4.90625 L 4.125 -4.90625 C 4.519531 -4.90625 4.847656 -4.945312 5.109375 -5.03125 C 5.378906 -5.125 5.59375 -5.257812 5.75 -5.4375 C 5.914062 -5.613281 6.03125 -5.832031 6.09375 -6.09375 C 6.164062 -6.363281 6.203125 -6.675781 6.203125 -7.03125 C 6.203125 -7.382812 6.160156 -7.6875 6.078125 -7.9375 C 6.003906 -8.195312 5.882812 -8.40625 5.71875 -8.5625 C 5.550781 -8.726562 5.332031 -8.847656 5.0625 -8.921875 C 4.800781 -8.992188 4.476562 -9.03125 4.09375 -9.03125 L 3.171875 -9.03125 Z M 3.171875 -4.90625 "/></g></g></g><g fill="#ff914d" fill-opacity="1"><g transform="translate(70.370842, 65.424853)"><g><path d="M 0.515625 0 L 0.515625 -0.5625 L 0.6875 -0.5625 C 0.84375 -0.5625 0.988281 -0.570312 1.125 -0.59375 C 1.257812 -0.625 1.375 -0.671875 1.46875 -0.734375 C 1.570312 -0.804688 1.648438 -0.90625 1.703125 -1.03125 C 1.765625 -1.15625 1.796875 -1.328125 1.796875 -1.546875 L 1.796875 -8.140625 C 1.796875 -8.347656 1.765625 -8.515625 1.703125 -8.640625 C 1.648438 -8.773438 1.570312 -8.875 1.46875 -8.9375 C 1.375 -9.007812 1.257812 -9.054688 1.125 -9.078125 C 0.988281 -9.097656 0.84375 -9.109375 0.6875 -9.109375 L 0.515625 -9.109375 L 0.515625 -9.6875 L 4.46875 -9.6875 L 4.46875 -9.109375 L 4.28125 -9.109375 C 4.132812 -9.109375 3.992188 -9.097656 3.859375 -9.078125 C 3.722656 -9.054688 3.601562 -9.007812 3.5 -8.9375 C 3.394531 -8.875 3.3125 -8.773438 3.25 -8.640625 C 3.195312 -8.515625 3.171875 -8.347656 3.171875 -8.140625 L 3.171875 -1.546875 C 3.171875 -1.328125 3.195312 -1.15625 3.25 -1.03125 C 3.3125 -0.90625 3.394531 -0.804688 3.5 -0.734375 C 3.601562 -0.671875 3.722656 -0.625 3.859375 -0.59375 C 3.992188 -0.570312 4.132812 -0.5625 4.28125 -0.5625 L 4.46875 -0.5625 L 4.46875 0 Z M 0.515625 0 "/></g></g></g><g fill="#ff914d" fill-opacity="1"><g transform="translate(76.95298, 65.424853)"><g><path d="M 8.59375 0 L 8.59375 -0.5625 L 8.640625 -0.5625 C 8.785156 -0.5625 8.914062 -0.570312 9.03125 -0.59375 C 9.15625 -0.613281 9.253906 -0.65625 9.328125 -0.71875 C 9.410156 -0.78125 9.476562 -0.863281 9.53125 -0.96875 C 9.582031 -1.082031 9.609375 -1.234375 9.609375 -1.421875 L 9.609375 -8.671875 L 6.515625 0 L 5.78125 0 L 2.625 -8.640625 L 2.625 -1.546875 C 2.625 -1.328125 2.644531 -1.15625 2.6875 -1.03125 C 2.738281 -0.90625 2.804688 -0.804688 2.890625 -0.734375 C 2.972656 -0.671875 3.078125 -0.625 3.203125 -0.59375 C 3.328125 -0.570312 3.460938 -0.5625 3.609375 -0.5625 L 3.65625 -0.5625 L 3.65625 0 L 0.515625 0 L 0.515625 -0.5625 L 0.6875 -0.5625 C 0.832031 -0.5625 0.972656 -0.570312 1.109375 -0.59375 C 1.242188 -0.613281 1.363281 -0.65625 1.46875 -0.71875 C 1.570312 -0.78125 1.648438 -0.867188 1.703125 -0.984375 C 1.765625 -1.109375 1.796875 -1.273438 1.796875 -1.484375 L 1.796875 -8.1875 C 1.796875 -8.382812 1.765625 -8.546875 1.703125 -8.671875 C 1.648438 -8.796875 1.570312 -8.890625 1.46875 -8.953125 C 1.363281 -9.015625 1.242188 -9.054688 1.109375 -9.078125 C 0.972656 -9.097656 0.832031 -9.109375 0.6875 -9.109375 L 0.515625 -9.109375 L 0.515625 -9.6875 L 3.609375 -9.6875 L 6.421875 -1.921875 L 9.203125 -9.6875 L 12.203125 -9.6875 L 12.203125 -9.109375 L 12.03125 -9.109375 C 11.875 -9.109375 11.726562 -9.097656 11.59375 -9.078125 C 11.457031 -9.054688 11.335938 -9.007812 11.234375 -8.9375 C 11.140625 -8.875 11.0625 -8.773438 11 -8.640625 C 10.945312 -8.515625 10.921875 -8.347656 10.921875 -8.140625 L 10.921875 -1.546875 C 10.921875 -1.328125 10.945312 -1.15625 11 -1.03125 C 11.0625 -0.90625 11.140625 -0.804688 11.234375 -0.734375 C 11.335938 -0.671875 11.457031 -0.625 11.59375 -0.59375 C 11.726562 -0.570312 11.875 -0.5625 12.03125 -0.5625 L 12.203125 -0.5625 L 12.203125 0 Z M 8.59375 0 "/></g></g></g><g fill="#ff914d" fill-opacity="1"><g transform="translate(91.278305, 65.424853)"><g><path d="M 3.171875 -0.671875 L 5.78125 -0.671875 C 6 -0.671875 6.179688 -0.703125 6.328125 -0.765625 C 6.484375 -0.828125 6.613281 -0.90625 6.71875 -1 C 6.820312 -1.101562 6.898438 -1.222656 6.953125 -1.359375 C 7.015625 -1.492188 7.054688 -1.632812 7.078125 -1.78125 L 7.171875 -2.375 L 7.875 -2.375 L 7.78125 0 L 0.515625 0 L 0.515625 -0.5625 L 0.6875 -0.5625 C 0.832031 -0.5625 0.972656 -0.570312 1.109375 -0.59375 C 1.242188 -0.613281 1.363281 -0.65625 1.46875 -0.71875 C 1.570312 -0.78125 1.648438 -0.867188 1.703125 -0.984375 C 1.765625 -1.109375 1.796875 -1.273438 1.796875 -1.484375 L 1.796875 -8.140625 C 1.796875 -8.347656 1.765625 -8.515625 1.703125 -8.640625 C 1.648438 -8.773438 1.570312 -8.875 1.46875 -8.9375 C 1.375 -9.007812 1.257812 -9.054688 1.125 -9.078125 C 0.988281 -9.097656 0.84375 -9.109375 0.6875 -9.109375 L 0.515625 -9.109375 L 0.515625 -9.6875 L 7.34375 -9.6875 L 7.421875 -7.3125 L 6.71875 -7.3125 L 6.65625 -7.890625 C 6.632812 -8.046875 6.597656 -8.1875 6.546875 -8.3125 C 6.492188 -8.445312 6.421875 -8.566406 6.328125 -8.671875 C 6.234375 -8.773438 6.113281 -8.851562 5.96875 -8.90625 C 5.820312 -8.96875 5.648438 -9 5.453125 -9 L 3.171875 -9 L 3.171875 -5.390625 L 6.4375 -5.390625 L 6.4375 -4.734375 L 3.171875 -4.734375 Z M 3.171875 -0.671875 "/></g></g></g><g fill="#ff914d" fill-opacity="1"><g transform="translate(101.331298, 65.424853)"><g><path d="M 7.71875 0 L 2.625 -7.8125 L 2.625 -1.546875 C 2.625 -1.328125 2.65625 -1.15625 2.71875 -1.03125 C 2.78125 -0.90625 2.859375 -0.804688 2.953125 -0.734375 C 3.054688 -0.671875 3.175781 -0.625 3.3125 -0.59375 C 3.445312 -0.570312 3.585938 -0.5625 3.734375 -0.5625 L 3.921875 -0.5625 L 3.921875 0 L 0.515625 0 L 0.515625 -0.5625 L 0.6875 -0.5625 C 0.84375 -0.5625 0.988281 -0.570312 1.125 -0.59375 C 1.257812 -0.625 1.375 -0.671875 1.46875 -0.734375 C 1.570312 -0.804688 1.648438 -0.90625 1.703125 -1.03125 C 1.765625 -1.15625 1.796875 -1.328125 1.796875 -1.546875 L 1.796875 -8.1875 C 1.796875 -8.382812 1.765625 -8.546875 1.703125 -8.671875 C 1.648438 -8.796875 1.570312 -8.890625 1.46875 -8.953125 C 1.363281 -9.015625 1.242188 -9.054688 1.109375 -9.078125 C 0.972656 -9.097656 0.832031 -9.109375 0.6875 -9.109375 L 0.515625 -9.109375 L 0.515625 -9.6875 L 3 -9.6875 L 7.859375 -2.1875 L 7.859375 -8.1875 C 7.859375 -8.382812 7.828125 -8.546875 7.765625 -8.671875 C 7.703125 -8.796875 7.617188 -8.890625 7.515625 -8.953125 C 7.421875 -9.015625 7.304688 -9.054688 7.171875 -9.078125 C 7.035156 -9.097656 6.890625 -9.109375 6.734375 -9.109375 L 6.5625 -9.109375 L 6.5625 -9.6875 L 9.96875 -9.6875 L 9.96875 -9.109375 L 9.796875 -9.109375 C 9.640625 -9.109375 9.492188 -9.097656 9.359375 -9.078125 C 9.222656 -9.054688 9.101562 -9.007812 9 -8.9375 C 8.90625 -8.875 8.828125 -8.773438 8.765625 -8.640625 C 8.710938 -8.515625 8.6875 -8.347656 8.6875 -8.140625 L 8.6875 0 Z M 7.71875 0 "/></g></g></g><g fill="#ff914d" fill-opacity="1"><g transform="translate(113.285309, 65.424853)"><g><path d="M 4.828125 -1.546875 C 4.828125 -1.328125 4.851562 -1.15625 4.90625 -1.03125 C 4.96875 -0.90625 5.046875 -0.804688 5.140625 -0.734375 C 5.242188 -0.671875 5.363281 -0.625 5.5 -0.59375 C 5.644531 -0.570312 5.789062 -0.5625 5.9375 -0.5625 L 6.25 -0.5625 L 6.25 0 L 2.03125 0 L 2.03125 -0.5625 L 2.34375 -0.5625 C 2.488281 -0.5625 2.628906 -0.570312 2.765625 -0.59375 C 2.898438 -0.613281 3.019531 -0.65625 3.125 -0.71875 C 3.226562 -0.78125 3.304688 -0.867188 3.359375 -0.984375 C 3.421875 -1.109375 3.453125 -1.273438 3.453125 -1.484375 L 3.453125 -9 L 2.15625 -9 C 1.957031 -9 1.789062 -8.96875 1.65625 -8.90625 C 1.519531 -8.851562 1.410156 -8.773438 1.328125 -8.671875 C 1.242188 -8.566406 1.179688 -8.445312 1.140625 -8.3125 C 1.097656 -8.1875 1.066406 -8.046875 1.046875 -7.890625 L 0.96875 -7.3125 L 0.265625 -7.3125 L 0.34375 -9.6875 L 7.96875 -9.6875 L 8.046875 -7.3125 L 7.34375 -7.3125 L 7.265625 -7.890625 C 7.253906 -8.046875 7.222656 -8.1875 7.171875 -8.3125 C 7.128906 -8.445312 7.066406 -8.566406 6.984375 -8.671875 C 6.898438 -8.773438 6.789062 -8.851562 6.65625 -8.90625 C 6.519531 -8.96875 6.347656 -9 6.140625 -9 L 4.828125 -9 Z M 4.828125 -1.546875 "/></g></g></g><g fill="#ff914d" fill-opacity="1"><g transform="translate(123.199198, 65.424853)"><g><path d="M 3.34375 0.125 C 2.90625 0.125 2.515625 0.0820312 2.171875 0 C 1.835938 -0.09375 1.554688 -0.222656 1.328125 -0.390625 C 1.109375 -0.554688 0.941406 -0.753906 0.828125 -0.984375 C 0.710938 -1.222656 0.65625 -1.488281 0.65625 -1.78125 C 0.65625 -2.050781 0.738281 -2.269531 0.90625 -2.4375 C 1.070312 -2.601562 1.3125 -2.6875 1.625 -2.6875 C 1.644531 -2.40625 1.691406 -2.132812 1.765625 -1.875 C 1.835938 -1.613281 1.941406 -1.382812 2.078125 -1.1875 C 2.222656 -0.988281 2.410156 -0.828125 2.640625 -0.703125 C 2.867188 -0.585938 3.140625 -0.53125 3.453125 -0.53125 C 4.066406 -0.53125 4.539062 -0.675781 4.875 -0.96875 C 5.21875 -1.257812 5.390625 -1.679688 5.390625 -2.234375 C 5.390625 -2.484375 5.351562 -2.703125 5.28125 -2.890625 C 5.21875 -3.078125 5.101562 -3.25 4.9375 -3.40625 C 4.769531 -3.570312 4.550781 -3.726562 4.28125 -3.875 C 4.019531 -4.03125 3.691406 -4.1875 3.296875 -4.34375 C 2.878906 -4.519531 2.515625 -4.707031 2.203125 -4.90625 C 1.890625 -5.101562 1.628906 -5.320312 1.421875 -5.5625 C 1.210938 -5.800781 1.054688 -6.066406 0.953125 -6.359375 C 0.847656 -6.660156 0.796875 -6.992188 0.796875 -7.359375 C 0.796875 -7.753906 0.867188 -8.101562 1.015625 -8.40625 C 1.171875 -8.707031 1.378906 -8.960938 1.640625 -9.171875 C 1.910156 -9.378906 2.222656 -9.539062 2.578125 -9.65625 C 2.941406 -9.769531 3.335938 -9.828125 3.765625 -9.828125 C 4.171875 -9.828125 4.53125 -9.78125 4.84375 -9.6875 C 5.15625 -9.601562 5.421875 -9.488281 5.640625 -9.34375 C 5.859375 -9.207031 6.019531 -9.046875 6.125 -8.859375 C 6.238281 -8.679688 6.296875 -8.492188 6.296875 -8.296875 C 6.296875 -8.003906 6.203125 -7.785156 6.015625 -7.640625 C 5.828125 -7.492188 5.566406 -7.421875 5.234375 -7.421875 C 5.234375 -7.628906 5.207031 -7.832031 5.15625 -8.03125 C 5.113281 -8.238281 5.03125 -8.421875 4.90625 -8.578125 C 4.789062 -8.742188 4.632812 -8.878906 4.4375 -8.984375 C 4.238281 -9.085938 4 -9.140625 3.71875 -9.140625 C 3.457031 -9.140625 3.222656 -9.101562 3.015625 -9.03125 C 2.804688 -8.957031 2.628906 -8.851562 2.484375 -8.71875 C 2.347656 -8.582031 2.242188 -8.421875 2.171875 -8.234375 C 2.097656 -8.046875 2.0625 -7.832031 2.0625 -7.59375 C 2.0625 -7.320312 2.09375 -7.082031 2.15625 -6.875 C 2.226562 -6.675781 2.347656 -6.492188 2.515625 -6.328125 C 2.679688 -6.160156 2.898438 -6.003906 3.171875 -5.859375 C 3.441406 -5.710938 3.773438 -5.554688 4.171875 -5.390625 C 4.566406 -5.234375 4.914062 -5.0625 5.21875 -4.875 C 5.53125 -4.695312 5.796875 -4.492188 6.015625 -4.265625 C 6.234375 -4.046875 6.398438 -3.796875 6.515625 -3.515625 C 6.628906 -3.242188 6.6875 -2.9375 6.6875 -2.59375 C 6.6875 -2.164062 6.609375 -1.78125 6.453125 -1.4375 C 6.296875 -1.101562 6.070312 -0.816406 5.78125 -0.578125 C 5.488281 -0.347656 5.132812 -0.171875 4.71875 -0.046875 C 4.3125 0.0664062 3.851562 0.125 3.34375 0.125 Z M 3.34375 0.125 "/></g></g></g><g fill="#ff914d" fill-opacity="1"><g transform="translate(59.966657, 73.410908)"><g><path d="M 3.125 0 L 0.375 0 L 0.375 -4.140625 L 3.125 -4.140625 L 3.125 -3.4375 L 1.15625 -3.4375 L 1.15625 -2.421875 L 2.921875 -2.421875 L 2.921875 -1.71875 L 1.15625 -1.71875 L 1.15625 -0.703125 L 3.125 -0.703125 Z M 3.125 0 "/></g></g></g><g fill="#ff914d" fill-opacity="1"><g transform="translate(65.169663, 73.410908)"><g><path d="M 1.15625 0 L 0.375 0 L 0.375 -4.140625 L 1.25 -4.140625 L 2.9375 -1.171875 L 2.9375 -4.140625 L 3.71875 -4.140625 L 3.71875 0 L 2.84375 0 L 1.15625 -2.96875 Z M 1.15625 0 "/></g></g></g><g fill="#ff914d" fill-opacity="1"><g transform="translate(71.099531, 73.410908)"><g><path d="M 2.234375 0.078125 C 1.878906 0.078125 1.578125 0.0195312 1.328125 -0.09375 C 1.078125 -0.207031 0.867188 -0.363281 0.703125 -0.5625 C 0.535156 -0.769531 0.410156 -1 0.328125 -1.25 C 0.253906 -1.507812 0.21875 -1.785156 0.21875 -2.078125 C 0.21875 -2.359375 0.253906 -2.625 0.328125 -2.875 C 0.410156 -3.132812 0.535156 -3.363281 0.703125 -3.5625 C 0.867188 -3.757812 1.078125 -3.914062 1.328125 -4.03125 C 1.578125 -4.15625 1.878906 -4.21875 2.234375 -4.21875 C 2.765625 -4.21875 3.1875 -4.085938 3.5 -3.828125 C 3.820312 -3.578125 4.023438 -3.25 4.109375 -2.84375 L 3.25 -2.84375 C 3.175781 -3.050781 3.054688 -3.210938 2.890625 -3.328125 C 2.722656 -3.453125 2.5 -3.515625 2.21875 -3.515625 C 1.957031 -3.515625 1.738281 -3.453125 1.5625 -3.328125 C 1.382812 -3.203125 1.25 -3.03125 1.15625 -2.8125 C 1.070312 -2.59375 1.03125 -2.347656 1.03125 -2.078125 C 1.03125 -1.796875 1.078125 -1.546875 1.171875 -1.328125 C 1.265625 -1.109375 1.40625 -0.9375 1.59375 -0.8125 C 1.78125 -0.6875 2.015625 -0.625 2.296875 -0.625 C 2.617188 -0.625 2.875 -0.703125 3.0625 -0.859375 C 3.257812 -1.023438 3.359375 -1.273438 3.359375 -1.609375 L 2.453125 -1.609375 L 2.453125 -2.25 L 4.140625 -2.25 L 4.140625 0 L 3.4375 0 L 3.4375 -0.46875 C 3.289062 -0.257812 3.109375 -0.113281 2.890625 -0.03125 C 2.671875 0.0390625 2.453125 0.078125 2.234375 0.078125 Z M 2.234375 0.078125 "/></g></g></g><g fill="#ff914d" fill-opacity="1"><g transform="translate(77.37656, 73.410908)"><g><path d="M 1.15625 0 L 0.375 0 L 0.375 -4.140625 L 1.15625 -4.140625 Z M 1.15625 0 "/></g></g></g><g fill="#ff914d" fill-opacity="1"><g transform="translate(80.729852, 73.410908)"><g><path d="M 1.15625 0 L 0.375 0 L 0.375 -4.140625 L 1.25 -4.140625 L 2.9375 -1.171875 L 2.9375 -4.140625 L 3.71875 -4.140625 L 3.71875 0 L 2.84375 0 L 1.15625 -2.96875 Z M 1.15625 0 "/></g></g></g><g fill="#ff914d" fill-opacity="1"><g transform="translate(86.659719, 73.410908)"><g><path d="M 3.125 0 L 0.375 0 L 0.375 -4.140625 L 3.125 -4.140625 L 3.125 -3.4375 L 1.15625 -3.4375 L 1.15625 -2.421875 L 2.921875 -2.421875 L 2.921875 -1.71875 L 1.15625 -1.71875 L 1.15625 -0.703125 L 3.125 -0.703125 Z M 3.125 0 "/></g></g></g></svg>
